<svg width="64" height="64" viewBox="0 0 64 64" fill="none" xmlns="http://www.w3.org/2000/svg">
<rect width="64" height="64" rx="16" fill="white"/>
<path d="M12.75 27.8429V39.0247C12.7496 39.3739 12.8181 39.7198 12.9515 40.0425C13.085 40.3652 13.2808 40.6584 13.5277 40.9053C13.7746 41.1522 14.0678 41.348 14.3905 41.4815C14.7132 41.6149 15.0591 41.6834 15.4083 41.683C15.5799 41.6821 15.7499 41.7153 15.9085 41.7807C16.0671 41.8461 16.2112 41.9424 16.3322 42.0639C16.4533 42.1855 16.5489 42.33 16.6136 42.4889C16.6784 42.6478 16.7108 42.8179 16.7092 42.9895V46.8356L20.8267 42.7237C21.1451 42.4047 21.5233 42.1515 21.9397 41.9788C22.356 41.806 22.8023 41.717 23.2531 41.7169H35.436C36.4575 41.7167 37.4371 41.3109 38.1593 40.5886C38.8816 39.8663 39.2875 38.8867 39.2877 37.8652V34.8902H28.5584C27.5369 34.89 26.5573 34.4841 25.835 33.7619C25.1128 33.0396 24.7069 32.06 24.7067 31.0385V23.9912H16.5961C15.5755 23.9926 14.5972 24.399 13.876 25.1212C13.1549 25.8434 12.7499 26.8223 12.75 27.8429Z" stroke="#B18962" stroke-width="2" stroke-linecap="round" stroke-linejoin="round"/>
<path d="M24.707 21.0163V31.0386C24.7072 32.0601 25.1131 33.0397 25.8354 33.762C26.5577 34.4842 27.5373 34.8901 28.5587 34.8903H40.7416C41.1924 34.8904 41.6387 34.9794 42.0551 35.1521C42.4714 35.3249 42.8496 35.578 43.168 35.897L47.2856 40.0146V36.1629C47.285 35.9917 47.3182 35.822 47.3833 35.6636C47.4484 35.5052 47.5441 35.3612 47.665 35.2398C47.7858 35.1185 47.9294 35.0221 48.0875 34.9563C48.2456 34.8905 48.4152 34.8566 48.5864 34.8564C49.2919 34.8562 49.9685 34.5762 50.4679 34.0779C50.9672 33.5795 51.2486 32.9035 51.2504 32.1981V21.0163C51.2502 19.9948 50.8443 19.0152 50.122 18.2929C49.3997 17.5706 48.4201 17.1648 47.3987 17.1646H28.5587C27.5373 17.1647 26.5577 17.5706 25.8354 18.2929C25.1131 19.0152 24.7072 19.9948 24.707 21.0163Z" stroke="#B18962" stroke-width="2" stroke-linecap="round" stroke-linejoin="round"/>
<path d="M47.4764 21.5928H28.415" stroke="#B18962" stroke-width="2" stroke-linecap="round" stroke-linejoin="round"/>
<path d="M47.4764 26.0537H28.415" stroke="#B18962" stroke-width="2" stroke-linecap="round" stroke-linejoin="round"/>
<path d="M47.477 30.5146H37.9463" stroke="#B18962" stroke-width="2" stroke-linecap="round" stroke-linejoin="round"/>
</svg>
