<svg width="64" height="64" viewBox="0 0 64 64" fill="none" xmlns="http://www.w3.org/2000/svg">
<rect width="64" height="64" rx="16" fill="white"/>
<path d="M35.3564 18.1903V14.8481C35.3564 14.5237 35.2276 14.2126 34.9982 13.9832C34.7688 13.7539 34.4577 13.625 34.1334 13.625H29.8666C29.5423 13.625 29.2312 13.7539 29.0018 13.9832C28.7724 14.2126 28.6436 14.5237 28.6436 14.8481V18.1903L24.6084 19.8617L22.2451 17.4984C22.1316 17.3848 21.9967 17.2947 21.8483 17.2333C21.6999 17.1718 21.5409 17.1402 21.3803 17.1402C21.2197 17.1402 21.0606 17.1718 20.9122 17.2333C20.7638 17.2947 20.629 17.3848 20.5154 17.4984L19.0069 19.0069L17.4984 20.5154C17.3848 20.629 17.2947 20.7638 17.2333 20.9122C17.1718 21.0606 17.1402 21.2197 17.1402 21.3803C17.1402 21.5409 17.1718 21.6999 17.2333 21.8483C17.2947 21.9967 17.3848 22.1316 17.4984 22.2451L19.8617 24.6084L18.1903 28.6436H14.8481C14.5237 28.6436 14.2126 28.7724 13.9832 29.0018C13.7539 29.2312 13.625 29.5423 13.625 29.8666V34.1334C13.625 34.4577 13.7539 34.7688 13.9832 34.9982C14.2126 35.2276 14.5237 35.3564 14.8481 35.3564H18.1903L19.8617 39.3916L17.4984 41.7549C17.3848 41.8684 17.2947 42.0033 17.2333 42.1517C17.1718 42.3001 17.1402 42.4591 17.1402 42.6197C17.1402 42.7803 17.1718 42.9394 17.2333 43.0878C17.2947 43.2362 17.3848 43.371 17.4984 43.4846L19.0069 44.9931L20.5154 46.5016C20.629 46.6152 20.7638 46.7052 20.9122 46.7667C21.0606 46.8282 21.2197 46.8598 21.3803 46.8598C21.5409 46.8598 21.6999 46.8282 21.8483 46.7667C21.9967 46.7052 22.1316 46.6152 22.2451 46.5016L24.6084 44.1383L28.6436 45.8097V49.1519C28.6436 49.3125 28.6752 49.4716 28.7367 49.62C28.7981 49.7683 28.8882 49.9032 29.0018 50.0168C29.1154 50.1303 29.2502 50.2204 29.3986 50.2819C29.547 50.3434 29.706 50.375 29.8666 50.375H34.1334C34.294 50.375 34.453 50.3434 34.6014 50.2819C34.7498 50.2204 34.8846 50.1303 34.9982 50.0168C35.1118 49.9032 35.2019 49.7684 35.2633 49.62C35.3248 49.4716 35.3564 49.3125 35.3564 49.1519V45.8097L39.3916 44.1383L41.7549 46.5016C41.8684 46.6152 42.0033 46.7053 42.1517 46.7667C42.3001 46.8282 42.4591 46.8598 42.6197 46.8598C42.7803 46.8598 42.9394 46.8282 43.0878 46.7667C43.2362 46.7053 43.371 46.6152 43.4846 46.5016L44.9931 44.9931L46.5016 43.4846C46.6152 43.371 46.7052 43.2362 46.7667 43.0878C46.8282 42.9394 46.8598 42.7804 46.8598 42.6198C46.8598 42.4591 46.8282 42.3001 46.7667 42.1517C46.7052 42.0033 46.6152 41.8685 46.5016 41.7549L44.1383 39.3916L45.8097 35.3565H49.1519C49.3125 35.3565 49.4716 35.3248 49.62 35.2634C49.7684 35.2019 49.9032 35.1118 50.0168 34.9982C50.1303 34.8847 50.2204 34.7498 50.2819 34.6014C50.3434 34.453 50.375 34.294 50.375 34.1334V29.8666C50.375 29.706 50.3434 29.547 50.2819 29.3986C50.2204 29.2502 50.1303 29.1154 50.0168 29.0018C49.9032 28.8882 49.7684 28.7981 49.62 28.7367C49.4716 28.6752 49.3125 28.6436 49.1519 28.6436H45.8097L44.1383 24.6084L46.5016 22.2451C46.6152 22.1316 46.7053 21.9967 46.7667 21.8483C46.8282 21.6999 46.8598 21.5409 46.8598 21.3803C46.8598 21.2197 46.8282 21.0606 46.7667 20.9122C46.7053 20.7638 46.6152 20.629 46.5016 20.5154L44.9931 19.0069L43.4846 17.4984C43.371 17.3848 43.2362 17.2947 43.0878 17.2333C42.9394 17.1718 42.7803 17.1402 42.6197 17.1402C42.4591 17.1402 42.3001 17.1718 42.1517 17.2333C42.0033 17.2947 41.8684 17.3848 41.7549 17.4984L39.3916 19.8617L35.3564 18.1903Z" stroke="#B18962" stroke-width="2" stroke-linecap="round" stroke-linejoin="round"/>
<path d="M32.0002 41.3985C37.1909 41.3985 41.3988 37.1906 41.3988 31.9999C41.3988 26.8092 37.1909 22.6013 32.0002 22.6013C26.8095 22.6013 22.6016 26.8092 22.6016 31.9999C22.6016 37.1906 26.8095 41.3985 32.0002 41.3985Z" stroke="#B18962" stroke-width="2" stroke-miterlimit="10"/>
</svg>
