<svg width="64" height="64" viewBox="0 0 64 64" fill="none" xmlns="http://www.w3.org/2000/svg">
<rect width="64" height="64" rx="16" fill="white"/>
<path d="M37.7614 15.8575V26.2938C37.765 26.5182 37.7243 26.7412 37.6415 26.9499C37.5587 27.1586 37.4356 27.3489 37.2791 27.5099C37.1226 27.6709 36.9358 27.7993 36.7295 27.888C36.5232 27.9766 36.3015 28.0236 36.077 28.0262H16.1876C15.2276 27.9712 14.3281 27.5395 13.6844 26.8251C13.0408 26.1107 12.7051 25.1712 12.7501 24.2106V17.9406C12.7051 16.9801 13.0408 16.0406 13.6844 15.3261C14.3281 14.6117 15.2276 14.1801 16.1876 14.125H36.077C36.3015 14.1277 36.5232 14.1747 36.7295 14.2633C36.9358 14.3519 37.1226 14.4804 37.2791 14.6414C37.4356 14.8023 37.5587 14.9926 37.6415 15.2013C37.7243 15.41 37.765 15.633 37.7614 15.8575Z" stroke="#B18962" stroke-width="2" stroke-linecap="round" stroke-linejoin="round"/>
<path d="M37.7617 17.6382H44.4786V24.6026H37.7617" stroke="#B18962" stroke-width="2" stroke-linecap="round" stroke-linejoin="round"/>
<path d="M44.4786 17.6382L45.1661 17.9476C45.7756 18.2215 46.2921 18.6672 46.6523 19.2301C47.0125 19.793 47.2008 20.4487 47.1942 21.1169C47.2013 21.7817 47.0154 22.4343 46.6591 22.9956C46.3028 23.557 45.7913 24.0029 45.1867 24.2794L44.4648 24.6026" stroke="#B18962" stroke-width="2" stroke-linecap="round" stroke-linejoin="round"/>
<path d="M47.208 21.0757H51.2505" stroke="#B18962" stroke-width="2" stroke-linecap="round" stroke-linejoin="round"/>
<path d="M18.6484 28.0264L13.8359 44.5264C13.715 45.0511 13.8041 45.6023 14.0841 46.0621C14.3642 46.522 14.813 46.8542 15.3346 46.9876L24.2721 49.7376C24.5175 49.8281 24.7785 49.8689 25.0398 49.8576C25.3012 49.8463 25.5576 49.7832 25.7943 49.6718C26.031 49.5605 26.2433 49.4033 26.4186 49.2092C26.594 49.0151 26.729 48.7881 26.8159 48.5414L27.8746 44.9664C27.9878 44.4466 27.8958 43.9032 27.6177 43.4497C27.3397 42.9962 26.8973 42.6676 26.3827 42.5326L22.7596 41.412L26.6577 28.0264L29.5384 31.5051" stroke="#B18962" stroke-width="2" stroke-linecap="round" stroke-linejoin="round"/>
<path d="M18.7037 21.1514H12.7568" stroke="#B18962" stroke-width="2" stroke-linecap="round" stroke-linejoin="round"/>
<path d="M37.7618 21.1514H32.5986" stroke="#B18962" stroke-width="2" stroke-linecap="round" stroke-linejoin="round"/>
<path d="M25.6543 18.3463V14.125" stroke="#B18962" stroke-width="2" stroke-linecap="round" stroke-linejoin="round"/>
<path d="M25.6543 28.0263V23.9495" stroke="#B18962" stroke-width="2" stroke-linecap="round" stroke-linejoin="round"/>
<path d="M33.6084 28.0264C33.6084 28.0264 34.9834 34.9907 24.6709 34.9907" stroke="#B18962" stroke-width="2" stroke-linecap="round" stroke-linejoin="round"/>
<path d="M25.6542 23.9562C27.1616 23.9562 28.3836 22.7003 28.3836 21.1512C28.3836 19.602 27.1616 18.3462 25.6542 18.3462C24.1468 18.3462 22.9248 19.602 22.9248 21.1512C22.9248 22.7003 24.1468 23.9562 25.6542 23.9562Z" stroke="#B18962" stroke-width="2" stroke-linecap="round" stroke-linejoin="round"/>
</svg>
