<svg width="64" height="64" viewBox="0 0 64 64" fill="none" xmlns="http://www.w3.org/2000/svg">
<rect width="64" height="64" rx="16" fill="white"/>
<path d="M19.4394 41.0474H14.125C13.7603 41.0474 13.4106 40.9026 13.1527 40.6447C12.8949 40.3868 12.75 40.0371 12.75 39.6724V20.6699C12.75 20.3052 12.8949 19.9555 13.1527 19.6976C13.4106 19.4398 13.7603 19.2949 14.125 19.2949H35.9394C36.304 19.2949 36.6538 19.4398 36.9116 19.6976C37.1695 19.9555 37.3144 20.3052 37.3144 20.6699V41.0474H26.7956" stroke="#B18962" stroke-width="2" stroke-linecap="round" stroke-linejoin="round"/>
<path d="M47.9636 41.0406H49.8748C50.2395 41.0406 50.5893 40.8957 50.8471 40.6378C51.105 40.38 51.2498 40.0302 51.2498 39.6656V33.9456C51.2431 33.435 51.0471 32.945 50.6998 32.5706L44.5123 25.9087C44.3209 25.6946 44.0869 25.5229 43.8252 25.4045C43.5636 25.2861 43.2801 25.2237 42.993 25.2212H37.3555V41.0337H40.6486" stroke="#B18962" stroke-width="2" stroke-linecap="round" stroke-linejoin="round"/>
<path d="M40.4082 25.2212V31.0718C40.4082 31.6188 40.6255 32.1434 41.0123 32.5302C41.3991 32.917 41.9237 33.1343 42.4707 33.1343H51.0438" stroke="#B18962" stroke-width="2" stroke-linecap="round" stroke-linejoin="round"/>
<path d="M23.1176 44.7118C25.149 44.7118 26.7957 43.0712 26.7957 41.0474C26.7957 39.0237 25.149 37.3831 23.1176 37.3831C21.0862 37.3831 19.4395 39.0237 19.4395 41.0474C19.4395 43.0712 21.0862 44.7118 23.1176 44.7118Z" stroke="#B18962" stroke-width="2" stroke-linecap="round" stroke-linejoin="round"/>
<path d="M44.2855 44.7118C46.3169 44.7118 47.9637 43.0712 47.9637 41.0474C47.9637 39.0237 46.3169 37.3831 44.2855 37.3831C42.2542 37.3831 40.6074 39.0237 40.6074 41.0474C40.6074 43.0712 42.2542 44.7118 44.2855 44.7118Z" stroke="#B18962" stroke-width="2" stroke-linecap="round" stroke-linejoin="round"/>
<path d="M17.5621 22.8081H32.5496C32.7574 22.8081 32.9568 22.8907 33.1038 23.0377C33.2507 23.1846 33.3333 23.384 33.3333 23.5919V33.4231C33.3333 33.631 33.2507 33.8303 33.1038 33.9773C32.9568 34.1243 32.7574 34.2069 32.5496 34.2069H17.5621C17.3542 34.2069 17.1549 34.1243 17.0079 33.9773C16.8609 33.8303 16.7783 33.631 16.7783 33.4231V23.5919C16.7783 23.384 16.8609 23.1846 17.0079 23.0377C17.1549 22.8907 17.3542 22.8081 17.5621 22.8081Z" stroke="#B18962" stroke-width="2" stroke-linecap="round" stroke-linejoin="round"/>
<path d="M28.1091 22.8081V28.8581L25.036 26.8781L21.9629 28.8581V22.8081" stroke="#B18962" stroke-width="2" stroke-linecap="round" stroke-linejoin="round"/>
</svg>
