<svg width="64" height="64" viewBox="0 0 64 64" fill="none" xmlns="http://www.w3.org/2000/svg">
<rect width="64" height="64" rx="16" fill="white"/>
<path d="M22.4119 30.2952V48.7739H17.1357C16.2025 48.7735 15.3077 48.4025 14.648 47.7424C13.9884 47.0823 13.6179 46.1873 13.6182 45.2541V33.8149C13.6179 32.8817 13.9884 31.9867 14.648 31.3266C15.3077 30.6665 16.2025 30.2955 17.1357 30.2952H22.4119Z" stroke="#B18962" stroke-width="2" stroke-linecap="round" stroke-linejoin="round"/>
<path d="M47.809 37.6438C48.5092 37.6988 49.163 38.0158 49.6399 38.5316C50.1167 39.0473 50.3816 39.7239 50.3816 40.4263C50.3816 41.1287 50.1167 41.8053 49.6399 42.3211C49.163 42.8368 48.5092 43.1538 47.809 43.2088C48.5092 43.2639 49.1629 43.5809 49.6397 44.0966C50.1165 44.6124 50.3813 45.2889 50.3813 45.9913C50.3813 46.6937 50.1165 47.3703 49.6397 47.886C49.1629 48.4018 48.5092 48.7188 47.809 48.7738H22.4121V30.3069C29.7752 30.3069 29.1518 17.7923 29.1518 17.7923C29.1818 17.0835 29.4915 16.4154 30.013 15.9345C30.5345 15.4536 31.2254 15.1989 31.9343 15.2263C32.6442 15.1976 33.3365 15.4516 33.8593 15.9326C34.3822 16.4137 34.6929 17.0824 34.7234 17.7923H34.7168V24.6107C34.7182 25.1133 34.9184 25.5949 35.2738 25.9503C35.6292 26.3056 36.1108 26.5059 36.6134 26.5073H47.809C48.5189 26.5358 49.1884 26.8448 49.6707 27.3665C50.153 27.8881 50.4086 28.5798 50.3815 29.2898C50.4086 29.9997 50.153 30.6914 49.6707 31.213C49.1884 31.7347 48.5189 32.0437 47.809 32.0723C48.5095 32.1281 49.1633 32.4458 49.64 32.9621C50.1168 33.4784 50.3815 34.1553 50.3815 34.858C50.3815 35.5608 50.1168 36.2377 49.64 36.754C49.1633 37.2703 48.5095 37.588 47.809 37.6438Z" stroke="#B18962" stroke-width="2" stroke-linecap="round" stroke-linejoin="round"/>
<path d="M47.8121 32.073H44.2314" stroke="#B18962" stroke-width="2" stroke-linecap="round" stroke-linejoin="round"/>
<path d="M47.8121 37.6409H44.2314" stroke="#B18962" stroke-width="2" stroke-linecap="round" stroke-linejoin="round"/>
<path d="M47.8121 43.209H44.2314" stroke="#B18962" stroke-width="2" stroke-linecap="round" stroke-linejoin="round"/>
</svg>
