<svg width="64" height="64" viewBox="0 0 64 64" fill="none" xmlns="http://www.w3.org/2000/svg">
<rect width="64" height="64" rx="16" fill="white"/>
<path d="M31.4997 50.5524C31.3146 50.5524 31.1192 50.5354 30.9137 50.5013C30.7082 50.4673 30.5176 50.4163 30.342 50.3482C26.3227 48.817 23.1288 46.22 20.7605 42.5572C18.3922 38.8945 17.208 34.9295 17.208 30.6625V21.918C17.208 21.2184 17.4074 20.5882 17.8062 20.0274C18.2037 19.4666 18.7188 19.0603 19.3518 18.8085L30.3461 14.7252C30.7436 14.5809 31.1281 14.5088 31.4997 14.5088C31.8713 14.5088 32.2565 14.5809 32.6553 14.7252L43.6476 18.8085C44.2792 19.0617 44.7943 19.468 45.1931 20.0274C45.5919 20.5882 45.7913 21.2184 45.7913 21.918V30.6625C45.7913 34.9295 44.6072 38.8945 42.2388 42.5572C39.8705 46.22 36.6773 48.817 32.6593 50.3482C32.481 50.4163 32.2898 50.4673 32.0856 50.5013C31.8815 50.5354 31.6861 50.5524 31.4997 50.5524ZM31.4997 48.6291C35.0386 47.5062 37.965 45.2604 40.2788 41.8916C42.5927 38.5229 43.7497 34.7798 43.7497 30.6625V21.8792C43.7497 21.6179 43.6775 21.3824 43.5333 21.1728C43.3903 20.9632 43.1875 20.8067 42.9248 20.7032L31.9325 16.6199C31.8018 16.5654 31.6576 16.5382 31.4997 16.5382C31.3418 16.5382 31.1975 16.5654 31.0668 16.6199L20.0745 20.7032C19.8118 20.8067 19.609 20.9632 19.4661 21.1728C19.3218 21.3824 19.2497 21.6179 19.2497 21.8792V30.6625C19.2497 34.7798 20.4066 38.5229 22.7205 41.8916C25.0344 45.2604 27.9608 47.5062 31.4997 48.6291Z" fill="#B18962"/>
</svg>
