<svg width="51" height="33" viewBox="0 0 51 33" fill="none" xmlns="http://www.w3.org/2000/svg">
<path d="M46.3995 23.6881C45.8294 24.1545 43.6732 25.4104 43.4503 25.5087C42.9028 25.7812 42.3807 26.006 41.8811 26.1802C41.3816 26.3544 40.8341 26.4415 40.2386 26.4415C39.3666 26.4415 38.7513 26.2617 38.3901 25.9021C38.0288 25.5424 37.8115 25.0423 37.7353 24.3961C37.7099 24.1966 37.6902 23.9999 37.6789 23.8004C37.6648 23.601 37.6619 23.4043 37.6619 23.2048C37.6619 22.7834 37.7127 22.2327 37.8115 21.5499C37.9103 20.8672 38.0288 20.1198 38.1671 19.2994C38.3026 18.4818 38.4606 17.6586 38.6356 16.8269C38.8078 15.9953 38.9715 15.2226 39.121 14.5034C39.2706 13.7841 39.4061 13.1772 39.5331 12.6799C39.6572 12.1854 39.7334 11.8623 39.756 11.7134C40.2527 9.83092 40.8764 7.8698 41.6243 5.83843C42.3722 3.80706 43.2668 1.85998 44.3139 0C44.0909 0.0252867 40.0298 0.559115 39.9056 0.559115C39.804 0.781077 39.6826 1.09295 39.5331 1.4891C39.3835 1.88526 39.2141 2.33761 39.0279 2.84616C39.0251 2.85178 39.0251 2.85459 39.0223 2.86021C38.6469 3.88292 38.201 4.87753 37.6902 5.83843C37.5857 6.0351 37.4813 6.22896 37.3741 6.42283C36.1238 8.71549 34.7692 10.9576 33.3242 13.1322C29.2941 19.0915 23.5397 26.3769 16.5434 29.7653C14.5933 28.7566 12.6346 27.7311 10.7071 26.7702C3.24518 23.0503 0.533034 26.582 0.149215 27.6806C-0.406759 29.2652 0.295972 32.6339 7.41921 32.9599C12.8124 33.2071 16.7607 31.2319 17.5791 30.8358C21.4173 32.5637 25.4333 33.7157 29.1925 31.7573C30.3722 31.1673 31.4079 29.9817 31.264 28.5965C31.3571 31.3359 27.5669 32.4935 25.3233 32.4822C22.7607 32.4373 20.4098 31.6225 18.1408 30.5548C25.0213 26.995 31.1032 20.0468 35.7711 13.1098C35.7429 13.2137 35.7174 13.3205 35.6892 13.4245C35.3167 14.8883 34.9922 16.324 34.7184 17.7372C34.4446 19.1505 34.2273 20.4514 34.0636 21.6426C33.9028 22.8339 33.8209 23.7752 33.8209 24.4691C33.8209 25.1154 33.9338 25.7335 34.1567 26.3291C34.2809 26.6775 34.4757 26.9866 34.7353 27.2591C34.9978 27.5316 35.3026 27.7677 35.6497 27.9643C35.9997 28.1638 36.3722 28.3183 36.7701 28.4307C37.168 28.5431 37.566 28.5993 37.9667 28.5993C38.8388 28.5993 42.1605 28.5993 46.8933 24.25L46.3995 23.6881ZM9.65723 31.6393C7.67322 31.6899 5.45214 31.6815 3.82373 30.4677C2.88393 29.7653 2.07962 28.4701 3.10126 27.3659C4.92723 25.6717 8.28846 26.5202 10.4249 27.4221C12.1549 28.1329 14.0034 29.1219 15.9169 30.0547C13.9244 30.9425 11.8331 31.5101 9.65723 31.6393ZM50.2828 27.3041C50.2828 28.0514 49.6732 28.6583 48.9225 28.6583C48.1718 28.6583 47.5622 28.0514 47.5622 27.3041C47.5622 26.5567 48.1718 25.9498 48.9225 25.9498C49.6732 25.947 50.2828 26.5539 50.2828 27.3041Z" fill="url(#paint0_linear_556_4123)"/>
<defs>
<linearGradient id="paint0_linear_556_4123" x1="17.661" y1="40.6639" x2="41.8483" y2="-1.4168" gradientUnits="userSpaceOnUse">
<stop stop-color="#88684C"/>
<stop offset="0.51" stop-color="#B28A62"/>
<stop offset="1" stop-color="#D2A06E"/>
</linearGradient>
</defs>
</svg>
