<svg width="127" height="15" viewBox="0 0 127 15" fill="none" xmlns="http://www.w3.org/2000/svg">
<path d="M28.9516 14.269C27.1151 14.269 25.5563 13.7177 24.2795 12.6191C23.0027 11.5205 22.2316 10.0944 21.9746 8.34916H20.0262V14.012H17.1367V0.252886H20.0262V5.66284H22.0119C22.3187 3.97974 23.1064 2.61585 24.3707 1.57117C25.6351 0.52649 27.1648 0.00415039 28.9474 0.00415039C30.2989 0.00415039 31.5094 0.310918 32.5872 0.920315C33.6651 1.52971 34.5066 2.37956 35.1119 3.46984C35.7171 4.56013 36.0198 5.77892 36.0198 7.13452C36.0198 8.49011 35.7171 9.71305 35.1119 10.7992C34.5066 11.8853 33.6651 12.7393 32.5872 13.3529C31.5135 13.9623 30.2989 14.269 28.9516 14.269ZM25.8424 3.93414C25.0547 4.7674 24.6609 5.83281 24.6609 7.13037C24.6609 8.42793 25.0547 9.49333 25.8424 10.3266C26.63 11.1598 27.6374 11.5744 28.8645 11.5744C30.0916 11.5744 31.1031 11.1557 31.8907 10.3225C32.6825 9.48919 33.0764 8.42378 33.0764 7.13037C33.0764 5.83695 32.6825 4.77568 31.8907 3.93828C31.0989 3.10502 30.0916 2.68633 28.8645 2.68633C27.6374 2.68633 26.6259 3.10503 25.8424 3.93414Z" fill="white"/>
<path d="M45.7533 9.82911L42.2046 4.91662V14.012H39.3359V0.252869H41.8896L46.4456 6.49193L51.0222 0.252869H53.6049V14.012H50.7362V4.8959L47.1586 9.82911H45.7533Z" fill="white"/>
<path d="M57.6084 14.012V0.252869H66.6872V2.66972H60.4398V5.87425H66.1773V8.25379H60.4398V11.5537H66.9152V14.012H57.6084Z" fill="white"/>
<path d="M78.9848 14.012V8.34914H73.1892V14.012H70.2998V0.252869H73.1892V5.66282H78.9848V0.252869H81.8742V14.012H78.9848Z" fill="white"/>
<path d="M90.7514 14.269C89.5864 14.269 88.4962 14.041 87.4763 13.585C86.4565 13.129 85.5569 12.4699 84.7734 11.6117L86.5187 9.77111C87.6256 11.0397 88.9936 11.6698 90.627 11.6698C91.709 11.6698 92.6251 11.363 93.3796 10.7495C94.1341 10.1359 94.615 9.31096 94.8181 8.27457H88.1479V5.89501H94.7891C94.557 4.89594 94.0761 4.09585 93.3382 3.49475C92.6044 2.89364 91.7172 2.591 90.6809 2.591C89.9471 2.591 89.2465 2.7444 88.5832 3.05532C87.9199 3.36623 87.3354 3.81395 86.8296 4.40262L85.0844 2.54956C85.8513 1.7163 86.7301 1.08617 87.7126 0.650886C88.6993 0.215603 89.7481 3.05176e-05 90.8591 3.05176e-05C91.8582 3.05176e-05 92.7868 0.178302 93.6491 0.530674C94.5114 0.887192 95.241 1.37636 95.8462 1.99819C96.4515 2.62003 96.9241 3.37452 97.2682 4.25753C97.6122 5.14053 97.7822 6.09815 97.7822 7.12625C97.7822 8.15434 97.6081 9.12441 97.264 10.0116C96.9199 10.8987 96.4391 11.6532 95.8297 12.275C95.2203 12.8969 94.4782 13.386 93.6035 13.7384C92.7329 14.0949 91.7836 14.269 90.7514 14.269Z" fill="white"/>
<path d="M99.0947 11.5744C99.6585 11.4293 100.106 11.2759 100.438 11.1184C100.77 10.9608 101.047 10.7453 101.267 10.4717C101.487 10.1981 101.644 9.87471 101.735 9.51404C101.827 9.14924 101.897 8.66421 101.943 8.05481L102.49 0.252869H112.394V14.012H109.504V2.94748H105.156L104.782 8.4445C104.654 10.2229 104.194 11.5537 103.402 12.4408C102.61 13.328 101.4 13.8959 99.7746 14.1446L99.0947 11.5744Z" fill="white"/>
<path d="M116.377 14.012V0.252869H119.266V4.75494H121.932C123.462 4.75494 124.685 5.17364 125.605 6.01104C126.525 6.84845 126.985 7.9719 126.985 9.37725C126.985 10.7826 126.529 11.9268 125.617 12.76C124.705 13.5933 123.474 14.012 121.928 14.012H116.377ZM119.229 11.4956H121.646C122.458 11.4956 123.076 11.3091 123.495 10.936C123.914 10.5629 124.121 10.0364 124.121 9.35651C124.121 8.67664 123.914 8.1543 123.495 7.7812C123.076 7.4081 122.458 7.2257 121.646 7.2257H119.229V11.4956Z" fill="white"/>
<path d="M3.73515 0.252869C3.38278 5.09074 3.26257 11.2801 0.945199 11.4376C0.551371 11.4583 0.257025 11.4169 0 11.3381V13.9332C0.551359 14.1281 1.06124 14.1861 1.53384 14.1861C5.3436 14.1654 5.97372 8.7637 6.44631 2.91017H10.2188V14.012H13.1663V0.252869H3.73515Z" fill="white"/>
</svg>
