<svg width="336" height="96" viewBox="0 0 336 96" fill="none" xmlns="http://www.w3.org/2000/svg">
<path d="M128.76 94.134C128.268 94.134 127.844 94.0532 127.474 93.8917L127.851 92.6666C128.127 92.7676 128.396 92.8215 128.652 92.8215C128.921 92.8215 129.15 92.7609 129.339 92.6262C129.527 92.4984 129.689 92.2897 129.823 91.9935L129.89 91.8656L126.68 85.498H128.208L129.224 87.551L130.631 90.3377L132.832 85.498H134.319L130.988 92.6128C130.739 93.1445 130.436 93.5282 130.086 93.7705C129.736 94.0196 129.291 94.134 128.76 94.134Z" fill="#7A7A7A"/>
<path d="M146.183 94.1339C145.611 94.1339 145.073 94.0396 144.575 93.8512C144.077 93.6627 143.639 93.4002 143.269 93.0636C142.899 92.7271 142.596 92.3232 142.36 91.852C142.125 91.3809 141.977 90.8693 141.916 90.3106H140.509V93.9858H139.156V85.5046H140.509V89.0183H141.929C142.084 87.9346 142.555 87.0528 143.336 86.3797C144.117 85.7066 145.066 85.3633 146.183 85.3633C147.005 85.3633 147.745 85.5518 148.398 85.9287C149.051 86.3056 149.569 86.8307 149.933 87.497C150.296 88.1634 150.485 88.9173 150.485 89.7452C150.485 90.3712 150.377 90.9501 150.162 91.4953C149.946 92.0405 149.65 92.505 149.273 92.8886C148.896 93.2723 148.438 93.5819 147.907 93.7973C147.375 94.0127 146.803 94.1339 146.183 94.1339ZM144.07 87.5374C143.518 88.1163 143.242 88.85 143.242 89.7452C143.242 90.6404 143.518 91.3741 144.07 91.953C144.622 92.5319 145.322 92.8213 146.177 92.8213C147.032 92.8213 147.732 92.5319 148.277 91.953C148.822 91.3741 149.105 90.6404 149.105 89.7452C149.105 88.85 148.829 88.1163 148.277 87.5374C147.725 86.9586 147.025 86.6691 146.177 86.6691C145.329 86.6691 144.622 86.9586 144.07 87.5374Z" fill="#7A7A7A"/>
<path d="M156.954 93.9855V86.8035H154.336V85.5044H160.926V86.8035H158.314V93.9855H156.954Z" fill="#7A7A7A"/>
<path d="M171.91 93.9855V85.5044H175.39C176.137 85.5044 176.743 85.7198 177.208 86.1506C177.672 86.5814 177.907 87.14 177.907 87.8333C177.907 88.5805 177.618 89.1661 177.046 89.6036C177.403 89.8055 177.679 90.0882 177.881 90.4383C178.083 90.795 178.183 91.1854 178.183 91.6229C178.183 92.3162 177.941 92.8816 177.45 93.3192C176.958 93.7567 176.332 93.9788 175.572 93.9788H171.91V93.9855ZM173.256 89.0853H175.323C175.7 89.0853 176.003 88.9776 176.225 88.7689C176.447 88.5603 176.555 88.2709 176.555 87.9208C176.555 87.5708 176.447 87.2881 176.225 87.0727C176.003 86.8573 175.706 86.7564 175.323 86.7564H173.256V89.0853ZM173.256 92.7403H175.451C175.875 92.7403 176.205 92.6259 176.454 92.4037C176.703 92.1816 176.824 91.8787 176.824 91.5018C176.824 91.1248 176.703 90.8219 176.454 90.5998C176.205 90.3777 175.875 90.2632 175.451 90.2632H173.256V92.7403Z" fill="#7A7A7A"/>
<path d="M189.207 95.9379V92.6868H190.21C190.466 92.4782 190.654 92.1955 190.789 91.8387C190.923 91.482 191.011 90.9637 191.058 90.2838L191.401 85.498H196.961V92.6868H198.2V95.9379H196.907V93.9859H190.506V95.9379H189.207ZM191.798 92.7272H195.602V86.7769H192.674L192.418 90.4185C192.35 91.4012 192.142 92.1753 191.798 92.7272Z" fill="#7A7A7A"/>
<path d="M203.203 93.9855V85.5044H208.568V86.7631H204.556V89.0853H208.251V90.3037H204.556V92.7201H208.716V93.9923H203.203V93.9855Z" fill="#7A7A7A"/>
<path d="M215.911 93.9855V86.8035H213.293V85.5044H219.883V86.8035H217.271V93.9855H215.911Z" fill="#7A7A7A"/>
<path d="M223.148 93.9855L226.453 85.5044H228.076L231.347 93.9855H229.947L229.267 92.1951H225.242L224.555 93.9855H223.148ZM225.706 90.97H228.816L227.268 86.8977L225.706 90.97Z" fill="#7A7A7A"/>
<path d="M235.289 92.8753C235.666 92.7743 235.955 92.6734 236.171 92.5657C236.386 92.458 236.555 92.3166 236.696 92.1349C236.837 91.9531 236.931 91.7378 236.985 91.5022C237.039 91.2666 237.08 90.9368 237.107 90.5262L237.47 85.498H243.299V93.9792H241.946V86.7971H238.749L238.473 90.6271C238.392 91.7041 238.13 92.5051 237.685 93.0234C237.234 93.5484 236.555 93.885 235.639 94.0398L235.289 92.8753Z" fill="#7A7A7A"/>
<path d="M253.592 93.9855V90.9835H251.808L249.977 93.9855H248.402L250.402 90.7748C249.87 90.5729 249.446 90.2431 249.123 89.7921C248.806 89.3411 248.645 88.8228 248.645 88.2439C248.645 87.4564 248.921 86.8035 249.473 86.2852C250.025 85.7669 250.725 85.5044 251.559 85.5044H254.945V93.9855H253.592ZM250.435 87.1737C250.152 87.4429 250.004 87.8064 250.004 88.2641C250.004 88.7218 250.146 89.0921 250.435 89.3546C250.718 89.6171 251.115 89.7517 251.613 89.7517H253.612V86.7698H251.613C251.115 86.7766 250.725 86.9112 250.435 87.1737Z" fill="#7A7A7A"/>
<path d="M259.758 93.9855L262.746 89.5901L260.014 85.5044H261.636L262.652 87.0189L263.608 88.4728L264.544 87.0189L265.547 85.5044H267.155L264.429 89.6171L267.384 93.9923H265.755L264.799 92.572L263.574 90.7344L262.349 92.572L261.38 93.9923H259.758V93.9855Z" fill="#7A7A7A"/>
<path d="M176.824 67.6807C173.842 67.6807 171.311 66.7854 169.238 65.0017C167.165 63.218 165.913 60.9025 165.496 58.0687H162.332V67.2633H157.641V44.9229H162.332V53.707H165.556C166.054 50.9741 167.333 48.7596 169.386 47.0634C171.439 45.3672 173.923 44.519 176.817 44.519C179.012 44.519 180.977 45.0171 182.727 46.0066C184.477 46.9961 185.844 48.376 186.827 50.1462C187.809 51.9165 188.301 53.8954 188.301 56.0965C188.301 58.2976 187.809 60.2832 186.827 62.0468C185.844 63.8103 184.477 65.1969 182.727 66.1931C180.984 67.1826 179.012 67.6807 176.824 67.6807ZM171.776 50.9001C170.497 52.2531 169.858 53.9829 169.858 56.0898C169.858 58.1966 170.497 59.9265 171.776 61.2794C173.055 62.6323 174.69 63.3055 176.683 63.3055C178.675 63.3055 180.318 62.6256 181.596 61.2727C182.882 59.9197 183.522 58.1898 183.522 56.0898C183.522 53.9897 182.882 52.2665 181.596 50.9068C180.311 49.5539 178.675 48.874 176.683 48.874C174.69 48.874 173.048 49.5539 171.776 50.9001Z" fill="white"/>
<path d="M204.103 60.4716L198.341 52.4953V67.2633H193.684V44.9229H197.83L205.227 55.0531L212.658 44.9229H216.852V67.2633H212.194V52.4617L206.385 60.4716H204.103Z" fill="white"/>
<path d="M223.355 67.2633V44.9229H238.097V48.8471H227.953V54.0502H237.269V57.9138H227.953V63.2718H238.467V67.2633H223.355Z" fill="white"/>
<path d="M258.059 67.2633V58.0686H248.649V67.2633H243.957V44.9229H248.649V53.7069H258.059V44.9229H262.75V67.2633H258.059Z" fill="white"/>
<path d="M277.163 67.681C275.272 67.681 273.502 67.3108 271.846 66.5704C270.19 65.83 268.729 64.7598 267.457 63.3664L270.291 60.3778C272.088 62.4375 274.309 63.4607 276.961 63.4607C278.718 63.4607 280.206 62.9626 281.431 61.9664C282.656 60.9702 283.437 59.6307 283.766 57.9479H272.936V54.0843H283.719C283.342 52.4621 282.562 51.163 281.363 50.187C280.172 49.211 278.732 48.7196 277.049 48.7196C275.857 48.7196 274.72 48.9687 273.643 49.4735C272.566 49.9783 271.617 50.7053 270.796 51.6611L267.962 48.6523C269.207 47.2994 270.634 46.2762 272.229 45.5695C273.831 44.8627 275.534 44.5127 277.338 44.5127C278.96 44.5127 280.468 44.8022 281.868 45.3743C283.268 45.9532 284.453 46.7474 285.436 47.7571C286.418 48.7667 287.186 49.9918 287.744 51.4255C288.303 52.8592 288.579 54.4141 288.579 56.0834C288.579 57.7527 288.296 59.3278 287.738 60.7682C287.179 62.2087 286.398 63.4337 285.409 64.4434C284.419 65.4531 283.214 66.2473 281.794 66.8195C280.381 67.3983 278.839 67.681 277.163 67.681Z" fill="white"/>
<path d="M290.715 63.3054C291.63 63.0698 292.357 62.8208 292.896 62.565C293.434 62.3092 293.885 61.9592 294.242 61.5149C294.599 61.0707 294.854 60.5457 295.003 59.9601C295.151 59.3677 295.265 58.5802 295.339 57.5907L296.228 44.9229H312.308V67.2633H307.617V49.298H300.556L299.95 58.2235C299.741 61.1111 298.994 63.2717 297.708 64.7122C296.423 66.1526 294.457 67.0748 291.819 67.4787L290.715 63.3054Z" fill="white"/>
<path d="M318.773 67.2633V44.9229H323.465V52.2328H327.793C330.277 52.2328 332.263 52.9126 333.757 54.2723C335.251 55.632 335.998 57.4561 335.998 59.7379C335.998 62.0198 335.258 63.8776 333.777 65.2305C332.296 66.5834 330.297 67.2633 327.786 67.2633H318.773ZM323.404 63.1775H327.329C328.648 63.1775 329.651 62.8746 330.331 62.2688C331.011 61.663 331.347 60.8082 331.347 59.7043C331.347 58.6004 331.011 57.7523 330.331 57.1465C329.651 56.5407 328.648 56.2445 327.329 56.2445H323.404V63.1775Z" fill="white"/>
<path d="M135.877 44.9229C135.305 52.778 135.11 62.8275 131.347 63.0833C130.708 63.1169 130.23 63.0496 129.812 62.9217V67.1354C130.708 67.4517 131.536 67.546 132.303 67.546C138.489 67.5123 139.512 58.7417 140.279 49.2375H146.405V67.2633H151.19V44.9229H135.877Z" fill="white"/>
<path d="M110.665 56.7497C109.305 57.867 104.162 60.8758 103.631 61.1114C102.325 61.7643 101.08 62.3028 99.8883 62.7201C98.6969 63.1374 97.391 63.3461 95.9708 63.3461C93.8909 63.3461 92.4235 62.9153 91.5619 62.0537C90.7003 61.1922 90.1821 59.994 90.0003 58.4459C89.9397 57.968 89.8927 57.4968 89.8657 57.0189C89.8321 56.541 89.8253 56.0698 89.8253 55.5919C89.8253 54.5822 89.9465 53.2629 90.1821 51.6273C90.4177 49.9916 90.7004 48.2012 91.0302 46.2357C91.3533 44.277 91.7302 42.3048 92.1476 40.3124C92.5582 38.32 92.9486 36.4689 93.3053 34.7458C93.662 33.0226 93.9851 31.5687 94.288 30.3773C94.5842 29.1926 94.7659 28.4186 94.8198 28.0618C96.0045 23.552 97.492 18.8537 99.2758 13.9872C101.059 9.1206 103.193 4.45597 105.69 0C105.159 0.0605796 95.4727 1.33948 95.1766 1.33948C94.9342 1.87123 94.6448 2.61838 94.288 3.56746C93.9313 4.51654 93.5274 5.60023 93.0831 6.81856C93.0764 6.83202 93.0765 6.83876 93.0697 6.85222C92.1745 9.30233 91.1109 11.6851 89.8926 13.9872C89.6436 14.4583 89.3945 14.9228 89.1387 15.3872C86.1569 20.8798 82.926 26.2512 79.4797 31.461C69.8677 45.7376 56.1431 63.1913 39.4567 71.309C34.8056 68.8925 30.1342 66.4357 25.5368 64.1336C7.73989 55.2217 1.27131 63.6826 0.355884 66.3145C-0.970137 70.1108 0.705906 78.1814 17.6951 78.9622C30.5582 79.5545 39.975 74.8226 41.927 73.8735C51.0812 78.0131 60.6596 80.7728 69.6254 76.0813C72.4389 74.6678 74.9092 71.8272 74.5659 68.5088C74.7881 75.0716 65.7483 77.8448 60.3971 77.8179C54.2853 77.7102 48.6782 75.7582 43.2665 73.2004C59.6768 64.6721 74.1823 48.0262 85.3155 31.4072C85.2482 31.6562 85.1876 31.912 85.1203 32.1611C84.2318 35.6679 83.4578 39.1075 82.8048 42.4932C82.1519 45.879 81.6336 48.9955 81.2432 51.8494C80.8595 54.7034 80.6643 56.9583 80.6643 58.6209C80.6643 60.169 80.9335 61.6499 81.4653 63.0769C81.7615 63.9115 82.2259 64.6519 82.8452 65.3048C83.4712 65.9577 84.1981 66.5232 85.026 66.9943C85.8607 67.4722 86.7492 67.8425 87.6983 68.1117C88.6473 68.3809 89.5964 68.5155 90.5522 68.5155C92.6321 68.5155 100.555 68.5156 111.843 58.0959L110.665 56.7497ZM23.0329 75.7986C18.301 75.9197 13.0036 75.8996 9.11975 72.9917C6.8783 71.309 4.95999 68.2059 7.39664 65.5606C11.7516 61.5018 19.7683 63.5346 24.8637 65.6952C28.9899 67.3982 33.3988 69.7675 37.9625 72.0023C33.2103 74.1293 28.2226 75.4889 23.0329 75.7986ZM119.927 65.4125C119.927 67.203 118.473 68.6569 116.682 68.6569C114.892 68.6569 113.438 67.203 113.438 65.4125C113.438 63.6221 114.892 62.1682 116.682 62.1682C118.473 62.1614 119.927 63.6153 119.927 65.4125Z" fill="url(#paint0_linear_556_3019)"/>
<defs>
<linearGradient id="paint0_linear_556_3019" x1="42.1222" y1="97.4188" x2="100.198" y2="-3.17034" gradientUnits="userSpaceOnUse">
<stop stop-color="#88684C"/>
<stop offset="0.51" stop-color="#B28A62"/>
<stop offset="1" stop-color="#D2A06E"/>
</linearGradient>
</defs>
</svg>
