<svg width="24" height="24" viewBox="0 0 24 24" fill="none" xmlns="http://www.w3.org/2000/svg">
<path d="M10.6467 14.1963V23.6601H5.91485C4.97362 23.6601 4.07094 23.2862 3.40539 22.6206C2.73984 21.9551 2.36594 21.0524 2.36594 20.1112V15.3793C2.36594 15.0656 2.49057 14.7647 2.71242 14.5428C2.93427 14.321 3.23517 14.1963 3.54891 14.1963H10.6467ZM20.1105 14.1963C20.4242 14.1963 20.7251 14.321 20.947 14.5428C21.1688 14.7647 21.2935 15.0656 21.2935 15.3793V20.1112C21.2935 21.0524 20.9196 21.9551 20.254 22.6206C19.5885 23.2862 18.6858 23.6601 17.7446 23.6601H13.0127V14.1963H20.1105ZM17.1531 0.000694279C17.8516 0.000550101 18.5389 0.177154 19.1508 0.514065C19.7628 0.850977 20.2795 1.33724 20.653 1.92759C21.0264 2.51795 21.2444 3.19319 21.2867 3.89047C21.329 4.58775 21.1942 5.28439 20.8948 5.91554H21.2935C21.9209 5.91554 22.5227 6.16481 22.9664 6.60851C23.4101 7.05221 23.6594 7.654 23.6594 8.28149V9.46446C23.6594 10.0919 23.4101 10.6937 22.9664 11.1374C22.5227 11.5811 21.9209 11.8304 21.2935 11.8304H13.0127V5.91554H10.6467V11.8304H2.36594C1.73845 11.8304 1.13667 11.5811 0.692968 11.1374C0.249268 10.6937 0 10.0919 0 9.46446V8.28149C0 7.654 0.249268 7.05221 0.692968 6.60851C1.13667 6.16481 1.73845 5.91554 2.36594 5.91554H2.7646C2.50184 5.36092 2.36567 4.75481 2.36594 4.14109C2.36594 1.85441 4.21965 0.000694279 6.48623 0.000694279C8.56234 -0.0347948 10.4042 1.2925 11.6688 3.47153L11.8297 3.75899C13.0517 1.49479 14.8581 0.0752215 16.9058 0.00306033L17.1531 0.000694279ZM6.50634 2.36663C6.03572 2.36663 5.58438 2.55359 5.25161 2.88636C4.91883 3.21914 4.73188 3.67048 4.73188 4.14109C4.73188 4.6117 4.91883 5.06304 5.25161 5.39582C5.58438 5.72859 6.03572 5.91554 6.50634 5.91554H10.2244C9.34783 3.66199 7.9188 2.34298 6.50634 2.36663ZM17.133 2.36663C15.7371 2.34298 14.3116 3.66317 13.435 5.91554H17.1531C17.6237 5.91288 18.074 5.72337 18.4049 5.38871C18.7357 5.05405 18.9201 4.60165 18.9175 4.13103C18.9148 3.66042 18.7253 3.21014 18.3906 2.87925C18.056 2.54836 17.6036 2.36397 17.133 2.36663Z" fill="white"/>
</svg>
