<svg width="3" height="8" viewBox="0 0 3 8" fill="none" xmlns="http://www.w3.org/2000/svg">
<path d="M0.891785 7.82587C0.58239 7.82587 0.354894 7.75004 0.209297 7.59837C0.0697656 7.44064 0 7.20405 0 6.88858C0 6.64592 0.0576324 6.23036 0.172897 5.64191C0.288162 5.05345 0.448926 4.28906 0.655189 3.34874L0.191097 2.70265C0.427693 2.53279 0.676422 2.39629 0.937284 2.29316C1.20421 2.19003 1.45294 2.13846 1.68347 2.13846C1.90793 2.13846 2.06567 2.187 2.15666 2.28406C2.25373 2.37506 2.30226 2.52976 2.30226 2.74815C2.30226 2.80882 2.28103 2.93318 2.23856 3.12125C2.1961 3.30324 2.1506 3.50647 2.10206 3.73094C1.93827 4.38613 1.80784 4.96548 1.71077 5.46901C1.61371 5.97253 1.56517 6.40326 1.56517 6.76119C1.56517 7.08878 1.64404 7.32234 1.80177 7.46187C1.51664 7.70454 1.21331 7.82587 0.891785 7.82587ZM1.54697 1.52877C1.29218 1.52877 1.08895 1.47114 0.937284 1.35588C0.78562 1.23455 0.709788 1.07075 0.709788 0.864486C0.709788 0.694622 0.761354 0.542958 0.864486 0.409493C0.967617 0.276029 1.10108 0.17593 1.26488 0.109198C1.42868 0.0363994 1.59854 0 1.77447 0C2.0232 0 2.2234 0.0606656 2.37506 0.181997C2.53279 0.297261 2.61166 0.454992 2.61166 0.655189C2.61166 0.903918 2.50549 1.11321 2.29316 1.28308C2.0869 1.44688 1.83817 1.52877 1.54697 1.52877Z" fill="#919191"/>
</svg>
