<svg width="26" height="26" viewBox="0 0 26 26" fill="none" xmlns="http://www.w3.org/2000/svg">
<g clip-path="url(#clip0_556_3224)">
<path d="M8.57115 23.5716C7.98186 23.5716 7.4774 23.3618 7.05776 22.9422C6.63811 22.5225 6.42829 22.0181 6.42829 21.4288C6.42829 20.8395 6.63811 20.335 7.05776 19.9154C7.4774 19.4957 7.98186 19.2859 8.57115 19.2859C9.16044 19.2859 9.6649 19.4957 10.0845 19.9154C10.5042 20.335 10.714 20.8395 10.714 21.4288C10.714 22.0181 10.5042 22.5225 10.0845 22.9422C9.6649 23.3618 9.16044 23.5716 8.57115 23.5716ZM19.2854 23.5716C18.6961 23.5716 18.1917 23.3618 17.772 22.9422C17.3524 22.5225 17.1426 22.0181 17.1426 21.4288C17.1426 20.8395 17.3524 20.335 17.772 19.9154C18.1917 19.4957 18.6961 19.2859 19.2854 19.2859C19.8747 19.2859 20.3792 19.4957 20.7988 19.9154C21.2185 20.335 21.4283 20.8395 21.4283 21.4288C21.4283 22.0181 21.2185 22.5225 20.7988 22.9422C20.3792 23.3618 19.8747 23.5716 19.2854 23.5716ZM7.66044 6.42878L10.2319 11.7859H17.7319L20.6783 6.42878H7.66044ZM6.64258 4.28592H22.4461C22.8569 4.28592 23.1694 4.46896 23.3836 4.83503C23.5979 5.2011 23.6069 5.57164 23.4104 5.94664L19.6069 12.8038C19.4104 13.1609 19.147 13.4377 18.8167 13.6341C18.4863 13.8306 18.1247 13.9288 17.7319 13.9288H9.74972L8.57115 16.0716H21.4283V18.2145H8.57115C7.76758 18.2145 7.16044 17.8618 6.74972 17.1565C6.33901 16.4511 6.32115 15.7502 6.69615 15.0538L8.14258 12.4288L4.28544 4.28592H2.14258V2.14307H5.62472L6.64258 4.28592Z" fill="#1C1C1C"/>
</g>
<defs>
<clipPath id="clip0_556_3224">
<rect width="25.7143" height="25.7143" fill="white"/>
</clipPath>
</defs>
</svg>
