<svg width="18" height="18" viewBox="0 0 18 18" fill="none" xmlns="http://www.w3.org/2000/svg">
<path d="M16.7288 0.139365C16.8861 0.034442 17.075 -0.012692 17.2632 0.00599222C17.4514 0.0246765 17.6273 0.108023 17.761 0.241834C17.8946 0.375644 17.9777 0.551642 17.9961 0.739844C18.0145 0.928046 17.9671 1.11681 17.8619 1.27398L17.7573 1.4015L10.1587 8.99722L17.7573 16.5946L17.8619 16.7221C17.9662 16.8793 18.0128 17.0677 17.994 17.2553C17.9751 17.443 17.892 17.6184 17.7586 17.7517C17.6252 17.8851 17.4498 17.9682 17.2621 17.9871C17.0744 18.0059 16.886 17.9593 16.7288 17.8551L16.6012 17.7504L9.00263 10.1531L1.40566 17.7504C1.33024 17.8285 1.24002 17.8908 1.14028 17.9336C1.04053 17.9765 0.933244 17.999 0.824686 18C0.716128 18.0009 0.608469 17.9802 0.507992 17.9391C0.407514 17.898 0.316229 17.8373 0.239464 17.7606C0.162699 17.6838 0.101991 17.5926 0.0608827 17.4921C0.019774 17.3916 -0.000912471 17.284 3.08689e-05 17.1754C0.000974208 17.0669 0.0235283 16.9596 0.0663769 16.8599C0.109226 16.7602 0.171511 16.67 0.249598 16.5946L7.84657 8.99722L0.249598 1.4015L0.143313 1.27398C0.0373986 1.11669 -0.0105336 0.927486 0.00772346 0.738753C0.0259805 0.55002 0.109291 0.373503 0.24339 0.239426C0.377489 0.105349 0.554036 0.0220522 0.7428 0.00379809C0.931563 -0.014456 1.1208 0.0334683 1.27812 0.139365L1.40566 0.245633L9.00263 7.84135L16.6012 0.245633L16.7288 0.139365Z" fill="white"/>
</svg>
