<svg width="22" height="22" viewBox="0 0 22 22" fill="none" xmlns="http://www.w3.org/2000/svg">
<path d="M4.14278 4.14278V3.99151C4.14278 3.13181 4.48429 2.30732 5.09219 1.69942C5.70009 1.09151 6.52458 0.75 7.38428 0.75H17.7571C18.6168 0.75 19.4413 1.09151 20.0492 1.69942C20.6571 2.30732 20.9986 3.13181 20.9986 3.99151V10.3124C20.9986 11.1721 20.6571 11.9966 20.0492 12.6045C19.4413 13.2124 18.6168 13.554 17.7571 13.554H17.6058M3.99151 17.8868C3.9966 17.634 3.9129 17.3874 3.75495 17.19C3.59701 16.9926 3.37484 16.8568 3.1271 16.8063C2.44397 16.6172 1.84162 16.2095 1.41229 15.6456C0.982961 15.0816 0.750323 14.3924 0.75 13.6836V7.38428C0.75 6.52458 1.09151 5.70009 1.69942 5.09219C2.30732 4.48429 3.13181 4.14278 3.99151 4.14278H14.3643C15.224 4.14278 16.0485 4.48429 16.6564 5.09219C17.2643 5.70009 17.6058 6.52458 17.6058 7.38428V13.716C17.6058 14.5757 17.2643 15.4002 16.6564 16.0081C16.0485 16.616 15.224 16.9575 14.3643 16.9575H8.73491C8.45145 16.9587 8.17981 17.0713 7.97856 17.2709L4.90993 20.3503C4.8366 20.4299 4.74065 20.4851 4.635 20.5085C4.52935 20.5318 4.41907 20.5223 4.31901 20.4811C4.21895 20.4399 4.13392 20.369 4.07537 20.278C4.01681 20.187 3.98754 20.0803 3.99151 19.9721V17.8868Z" stroke="white" stroke-width="1.5" stroke-miterlimit="10"/>
<path d="M5.9375 10.453V10.4638M9.17901 10.453V10.4638M12.4205 10.4638V10.4746" stroke="white" stroke-width="2" stroke-linecap="round" stroke-linejoin="round"/>
</svg>
