<svg width="60" height="33" viewBox="0 0 60 33" fill="none" xmlns="http://www.w3.org/2000/svg">
<path d="M55.2822 0.5C56.4283 0.5 57.4597 0.95316 58.2158 1.91504C58.9812 2.88887 59.499 4.42943 59.499 6.64941V28.3506C59.499 30.6137 57.6298 32.501 55.2832 32.501H12.3906C11.7257 32.5036 11.0688 32.3502 10.4736 32.0537C9.88143 31.7586 9.3663 31.3296 8.96875 30.8008L1.32617 18.9902L1.31738 18.9766L1.30762 18.9639C0.78302 18.2571 0.5 17.3997 0.5 16.5195C0.5001 15.6392 0.782347 14.7825 1.30664 14.0762L1.31641 14.0635L1.3252 14.0498L8.97266 2.23438C9.71307 1.24366 10.8686 0.617927 12.1475 0.513672L12.4053 0.5H55.2822ZM8.49902 13.5C7.70337 13.5 6.93956 13.8163 6.37695 14.3789C5.81451 14.9415 5.49902 15.7045 5.49902 16.5C5.49902 17.2955 5.81451 18.0585 6.37695 18.6211C6.93956 19.1837 7.70337 19.5 8.49902 19.5C9.29451 19.4999 10.0576 19.1836 10.6201 18.6211C11.1826 18.0585 11.499 17.2955 11.499 16.5C11.499 15.7045 11.1826 14.9415 10.6201 14.3789C10.0576 13.8164 9.29451 13.5001 8.49902 13.5Z" fill="#D60605" stroke="#D60605"/>
</svg>
