<svg width="30" height="30" viewBox="0 0 30 30" fill="none" xmlns="http://www.w3.org/2000/svg">
<path fill-rule="evenodd" clip-rule="evenodd" d="M7.29967 12.3201C9.53851 17.1928 13.5156 21.0545 18.4522 23.1488L18.4672 23.1551L19.4222 23.5801C20.012 23.8431 20.6745 23.8951 21.2982 23.7274C21.9219 23.5596 22.4689 23.1823 22.8472 22.6588L24.4397 20.4551C24.4865 20.3902 24.5066 20.3098 24.4959 20.2305C24.4852 20.1512 24.4445 20.079 24.3822 20.0288L21.6022 17.7851C21.5694 17.7586 21.5315 17.7391 21.491 17.7276C21.4504 17.7161 21.408 17.713 21.3662 17.7184C21.3243 17.7237 21.2841 17.7375 21.2477 17.7589C21.2114 17.7802 21.1797 17.8087 21.1547 17.8426L20.0722 19.3026C19.9446 19.4748 19.7619 19.5982 19.5545 19.6521C19.3471 19.706 19.1274 19.6872 18.9322 19.5988C15.2343 17.922 12.2715 14.9592 10.5947 11.2613C10.5063 11.0661 10.4875 10.8464 10.5414 10.639C10.5953 10.4316 10.7187 10.2489 10.8909 10.1213L12.3497 9.03758C12.3836 9.01252 12.412 8.98087 12.4334 8.94453C12.4547 8.90818 12.4685 8.8679 12.4739 8.82609C12.4793 8.78429 12.4761 8.74183 12.4646 8.70127C12.4532 8.66071 12.4336 8.62288 12.4072 8.59008L10.1647 5.81008C10.1145 5.74774 10.0423 5.70703 9.96301 5.69633C9.8837 5.68563 9.80332 5.70576 9.73842 5.75258L7.52217 7.35258C6.99517 7.73271 6.61605 8.2836 6.44925 8.91162C6.28244 9.53964 6.33824 10.206 6.60717 10.7976L7.29967 12.3201ZM17.7122 24.8713C12.3488 22.5934 8.02832 18.3964 5.59592 13.1013L5.59342 13.0988L4.90092 11.5738C4.45269 10.5881 4.35955 9.47763 4.63732 8.43104C4.9151 7.38444 5.54664 6.46629 6.42467 5.83258L8.64092 4.23258C9.09483 3.90498 9.65706 3.76386 10.2119 3.83827C10.7667 3.91268 11.2719 4.19695 11.6234 4.63258L13.8672 7.41383C14.0523 7.64329 14.1892 7.90782 14.2695 8.19152C14.3499 8.47523 14.372 8.77224 14.3347 9.06472C14.2973 9.3572 14.2012 9.63911 14.0521 9.8935C13.903 10.1479 13.7041 10.3695 13.4672 10.5451L12.6297 11.1651C14.0462 13.9101 16.2821 16.1461 19.0272 17.5626L19.6484 16.7251C19.824 16.4884 20.0455 16.2896 20.2998 16.1406C20.5541 15.9916 20.8359 15.8956 21.1282 15.8582C21.4205 15.8209 21.7174 15.843 22.001 15.9232C22.2845 16.0034 22.549 16.1401 22.7784 16.3251L25.5597 18.5688C25.9956 18.9204 26.2801 19.4258 26.3546 19.9809C26.429 20.5361 26.2876 21.0986 25.9597 21.5526L24.3672 23.7576C23.7368 24.63 22.8254 25.2589 21.7861 25.5386C20.7467 25.8184 19.6428 25.7319 18.6597 25.2938L17.7122 24.8713Z" fill="white"/>
</svg>
