<svg width="22" height="22" viewBox="0 0 22 22" fill="none" xmlns="http://www.w3.org/2000/svg">
<path d="M19.4798 11H8.1544M4.15682 11H2.52148M4.15682 11C4.15682 10.47 4.36736 9.96173 4.74212 9.58697C5.11688 9.21221 5.62516 9.00167 6.15515 9.00167C6.68514 9.00167 7.19343 9.21221 7.56819 9.58697C7.94295 9.96173 8.15348 10.47 8.15348 11C8.15348 11.53 7.94295 12.0383 7.56819 12.413C7.19343 12.7878 6.68514 12.9983 6.15515 12.9983C5.62516 12.9983 5.11688 12.7878 4.74212 12.413C4.36736 12.0383 4.15682 11.53 4.15682 11ZM19.4798 17.0564H14.2108M14.2108 17.0564C14.2108 17.5865 13.9998 18.0954 13.6249 18.4702C13.2501 18.8451 12.7417 19.0557 12.2116 19.0557C11.6816 19.0557 11.1733 18.8442 10.7985 18.4695C10.4238 18.0947 10.2132 17.5864 10.2132 17.0564M14.2108 17.0564C14.2108 16.5263 13.9998 16.0184 13.6249 15.6435C13.2501 15.2687 12.7417 15.0581 12.2116 15.0581C11.6816 15.0581 11.1733 15.2686 10.7985 15.6434C10.4238 16.0181 10.2132 16.5264 10.2132 17.0564M10.2132 17.0564H2.52148M19.4798 4.94359H16.6336M12.636 4.94359H2.52148M12.636 4.94359C12.636 4.41359 12.8465 3.90531 13.2213 3.53055C13.596 3.15579 14.1043 2.94525 14.6343 2.94525C14.8967 2.94525 15.1566 2.99694 15.399 3.09737C15.6415 3.19779 15.8618 3.34499 16.0474 3.53055C16.2329 3.71611 16.3801 3.93641 16.4805 4.17886C16.581 4.4213 16.6327 4.68116 16.6327 4.94359C16.6327 5.20601 16.581 5.46587 16.4805 5.70831C16.3801 5.95076 16.2329 6.17106 16.0474 6.35662C15.8618 6.54218 15.6415 6.68938 15.399 6.7898C15.1566 6.89023 14.8967 6.94192 14.6343 6.94192C14.1043 6.94192 13.596 6.73138 13.2213 6.35662C12.8465 5.98186 12.636 5.47358 12.636 4.94359Z" stroke="white" stroke-width="1.5" stroke-miterlimit="10" stroke-linecap="round"/>
</svg>
