<svg width="20" height="20" viewBox="0 0 20 20" fill="none" xmlns="http://www.w3.org/2000/svg">
<path d="M8.33073 12.5052L12.6557 10.0052L8.33073 7.50521V12.5052ZM17.9641 5.98021C18.0724 6.37188 18.1474 6.89687 18.1974 7.56354C18.2557 8.23021 18.2807 8.80521 18.2807 9.30521L18.3307 10.0052C18.3307 11.8302 18.1974 13.1719 17.9641 14.0302C17.7557 14.7802 17.2724 15.2635 16.5224 15.4719C16.1307 15.5802 15.4141 15.6552 14.3141 15.7052C13.2307 15.7635 12.2391 15.7885 11.3224 15.7885L9.9974 15.8385C6.50573 15.8385 4.33073 15.7052 3.4724 15.4719C2.7224 15.2635 2.23906 14.7802 2.03073 14.0302C1.9224 13.6385 1.8474 13.1135 1.7974 12.4469C1.73906 11.7802 1.71406 11.2052 1.71406 10.7052L1.66406 10.0052C1.66406 8.18021 1.7974 6.83854 2.03073 5.98021C2.23906 5.23021 2.7224 4.74688 3.4724 4.53854C3.86406 4.43021 4.58073 4.35521 5.68073 4.30521C6.76406 4.24687 7.75573 4.22187 8.6724 4.22187L9.9974 4.17188C13.4891 4.17188 15.6641 4.30521 16.5224 4.53854C17.2724 4.74688 17.7557 5.23021 17.9641 5.98021Z" fill="white"/>
</svg>
