<svg width="14" height="26" viewBox="0 0 14 26" fill="none" xmlns="http://www.w3.org/2000/svg">
<path d="M13.3535 12.5276L13.3535 12.9586L13.3406 12.9586L13.2914 12.9595C13.2466 12.9606 13.18 12.9635 13.0914 12.9681C12.9156 12.9767 12.657 12.9966 12.3328 13.0353C11.6854 13.1129 10.7794 13.2681 9.75524 13.5793C7.70265 14.2017 5.19317 15.4405 3.30007 17.9043L2.61644 17.3785C4.65351 14.7285 7.34145 13.4104 9.50438 12.7543C10.5871 12.4267 11.5432 12.2621 12.2311 12.1793C12.5758 12.1384 12.9221 12.1113 13.269 12.0983L13.3294 12.0966L13.3527 12.0966L13.3535 12.5276ZM3.30007 17.9043C2.2311 19.2957 1.61731 21.0741 1.27162 22.5293C1.08834 23.3003 0.955868 24.0824 0.87507 24.8707L0.861275 25.0448L0.860413 25.0535L0.860413 25.0552L0.429379 25.0276L6.67524e-05 25L6.6752e-05 24.9957L0.000931734 24.9845L0.00437831 24.9431L0.0173092 24.7897C0.0354433 24.6019 0.0569992 24.4145 0.0819644 24.2276C0.166676 23.5899 0.283783 22.9569 0.432828 22.331C0.790586 20.8241 1.44058 18.9086 2.61644 17.3785L3.30007 17.9043ZM13.3535 12.5276L13.3535 12.9586L13.3294 12.9586C13.315 12.9586 13.2949 12.9581 13.269 12.9569C13.2167 12.9563 13.142 12.9535 13.0449 12.9483C12.8518 12.9379 12.5742 12.9172 12.2311 12.8759C11.5432 12.7931 10.5871 12.6293 9.50438 12.3009C7.34145 11.6457 4.65351 10.3267 2.61644 7.67673L3.30007 7.15087C5.19317 9.61466 7.70265 10.8535 9.75438 11.4759C10.7802 11.7862 11.6854 11.9414 12.3328 12.019C12.6512 12.0576 12.971 12.0834 13.2914 12.0966L13.3406 12.0966L13.3518 12.0966L13.3527 12.0966L13.3535 12.5276ZM2.61644 7.67673C1.44058 6.1457 0.790585 4.23104 0.432826 2.72501C0.253516 1.96639 0.144893 1.30259 0.0819624 0.827594C0.0505722 0.589721 0.0247028 0.35115 0.00437614 0.112075L0.000929556 0.0706951L6.45717e-05 0.0560429L0.430237 0.0275928L0.86041 4.90688e-06L0.86041 0.0103523L0.87593 0.184489C0.957763 0.972646 1.09022 1.75472 1.27248 2.52587C1.61731 3.9819 2.2311 5.75949 3.30007 7.15087L2.61644 7.67673Z" fill="white"/>
</svg>
