<svg width="36" height="33" viewBox="0 0 36 33" fill="none" xmlns="http://www.w3.org/2000/svg">
<path d="M3.17676 11.9231C3.17679 10.2618 3.68315 8.63965 4.62896 7.27082C5.57477 5.90199 6.91553 4.85089 8.47417 4.25634C10.0328 3.6618 11.736 3.55178 13.3588 3.94082C14.9816 4.32986 16.4476 5.19965 17.5633 6.43532C17.6418 6.51894 17.7368 6.5856 17.8424 6.63118C17.9479 6.67676 18.0617 6.70028 18.1768 6.70028C18.2918 6.70028 18.4056 6.67676 18.5111 6.63118C18.6167 6.5856 18.7117 6.51894 18.7903 6.43532C19.9024 5.19162 21.3688 4.31452 22.9942 3.92075C24.6196 3.52699 26.327 3.63524 27.8891 4.23109C29.4511 4.82694 30.7938 5.88214 31.7384 7.25624C32.683 8.63034 33.1847 10.2582 33.1768 11.9231C33.1768 15.3417 30.9268 17.8945 28.6768 20.1338L20.4388 28.0653C20.1593 28.3848 19.8147 28.6414 19.4278 28.8182C19.041 28.9949 18.6208 29.0877 18.1952 29.0904C17.7696 29.0931 17.3482 29.0056 16.9592 28.8337C16.5701 28.6619 16.2223 28.4096 15.9388 28.0937L7.67676 20.1338C5.42676 17.8945 3.17676 15.3566 3.17676 11.9231Z" stroke="white" stroke-width="2.5" stroke-linecap="round" stroke-linejoin="round"/>
</svg>
