<svg width="28" height="28" viewBox="0 0 28 28" fill="none" xmlns="http://www.w3.org/2000/svg">
<path d="M22.6341 5.26171C21.5645 4.18129 20.2905 3.32465 18.8864 2.74177C17.4822 2.15888 15.9761 1.86141 14.4558 1.86671C8.08578 1.86671 2.89411 7.05837 2.89411 13.4284C2.89411 15.47 3.43078 17.4534 4.43411 19.2034L2.80078 25.2L8.92578 23.59C10.6174 24.5117 12.5191 25.0017 14.4558 25.0017C20.8258 25.0017 26.0174 19.81 26.0174 13.44C26.0174 10.3484 24.8158 7.44337 22.6341 5.26171ZM14.4558 23.0417C12.7291 23.0417 11.0374 22.575 9.55578 21.7L9.20578 21.49L5.56578 22.4467L6.53411 18.9L6.30078 18.5384C5.34149 17.0065 4.83211 15.2358 4.83078 13.4284C4.83078 8.13171 9.14745 3.81504 14.4441 3.81504C17.0108 3.81504 19.4258 4.81837 21.2341 6.63837C22.1295 7.52966 22.8391 8.58981 23.3217 9.75737C23.8044 10.9249 24.0505 12.1767 24.0458 13.44C24.0691 18.7367 19.7524 23.0417 14.4558 23.0417ZM19.7291 15.855C19.4374 15.715 18.0141 15.015 17.7574 14.91C17.4891 14.8167 17.3024 14.77 17.1041 15.05C16.9058 15.3417 16.3574 15.995 16.1941 16.1817C16.0308 16.38 15.8558 16.4034 15.5641 16.2517C15.2724 16.1117 14.3391 15.7967 13.2424 14.8167C12.3791 14.0467 11.8074 13.1017 11.6324 12.81C11.4691 12.5184 11.6091 12.3667 11.7608 12.215C11.8891 12.0867 12.0524 11.8767 12.1924 11.7134C12.3324 11.55 12.3908 11.4217 12.4841 11.235C12.5774 11.0367 12.5308 10.8734 12.4608 10.7334C12.3908 10.5934 11.8074 9.17004 11.5741 8.58671C11.3408 8.02671 11.0958 8.09671 10.9208 8.08504H10.3608C10.1624 8.08504 9.85911 8.15504 9.59078 8.44671C9.33411 8.73837 8.58745 9.43837 8.58745 10.8617C8.58745 12.285 9.62578 13.6617 9.76578 13.8484C9.90578 14.0467 11.8074 16.9634 14.7008 18.2117C15.3891 18.515 15.9258 18.69 16.3458 18.8184C17.0341 19.04 17.6641 19.005 18.1658 18.935C18.7258 18.8534 19.8808 18.235 20.1141 17.5584C20.3591 16.8817 20.3591 16.31 20.2774 16.1817C20.1958 16.0534 20.0208 15.995 19.7291 15.855Z" fill="white"/>
</svg>
