<svg width="26" height="26" viewBox="0 0 26 26" fill="none" xmlns="http://www.w3.org/2000/svg">
<g clip-path="url(#clip0_556_3120)">
<path fill-rule="evenodd" clip-rule="evenodd" d="M22.7709 4.32681C23.0654 4.20286 23.3877 4.16012 23.7043 4.20301C24.0209 4.24591 24.3203 4.37289 24.5711 4.57072C24.822 4.76856 25.0153 5.03003 25.1308 5.32791C25.2464 5.62579 25.28 5.94919 25.2281 6.26446L22.5254 22.6582C22.2633 24.2396 20.5282 25.1464 19.0779 24.3587C17.8648 23.6997 16.063 22.6844 14.4423 21.625C13.632 21.0947 11.1498 19.3966 11.4548 18.1883C11.717 17.1551 15.8878 13.2726 18.2712 10.9644C19.2066 10.0575 18.78 9.53439 17.6753 10.3686C14.9321 12.4397 10.5277 15.5892 9.07151 16.4758C7.78689 17.2576 7.11717 17.391 6.31637 17.2576C4.85539 17.0145 3.50046 16.6379 2.3946 16.1791C0.900248 15.5595 0.972939 13.505 2.39341 12.9068L22.7709 4.32681Z" fill="white"/>
</g>
<defs>
<clipPath id="clip0_556_3120">
<rect width="26" height="26" fill="white"/>
</clipPath>
</defs>
</svg>
