<svg width="40" height="40" viewBox="0 0 40 40" fill="none" xmlns="http://www.w3.org/2000/svg">
<path d="M20.0025 28.7918L13.0858 32.9585C12.7803 33.1529 12.4608 33.2363 12.1275 33.2085C11.7942 33.1807 11.5025 33.0696 11.2525 32.8752C11.0025 32.6807 10.8081 32.4379 10.6692 32.1468C10.5303 31.8557 10.5025 31.5291 10.5858 31.1668L12.4192 23.2918L6.29417 18.0002C6.01639 17.7502 5.84306 17.4652 5.77417 17.1452C5.70528 16.8252 5.72583 16.5129 5.83583 16.2085C5.94583 15.9041 6.1125 15.6541 6.33583 15.4585C6.55917 15.2629 6.86472 15.1379 7.2525 15.0835L15.3358 14.3752L18.4608 6.9585C18.5997 6.62516 18.8153 6.37516 19.1075 6.2085C19.3997 6.04183 19.6981 5.9585 20.0025 5.9585C20.3069 5.9585 20.6053 6.04183 20.8975 6.2085C21.1897 6.37516 21.4053 6.62516 21.5442 6.9585L24.6692 14.3752L32.7525 15.0835C33.1414 15.1391 33.4469 15.2641 33.6692 15.4585C33.8914 15.6529 34.0581 15.9029 34.1692 16.2085C34.2803 16.5141 34.3014 16.8268 34.2325 17.1468C34.1636 17.4668 33.9897 17.7513 33.7108 18.0002L27.5858 23.2918L29.4192 31.1668C29.5025 31.5279 29.4747 31.8546 29.3358 32.1468C29.1969 32.4391 29.0025 32.6818 28.7525 32.8752C28.5025 33.0685 28.2108 33.1796 27.8775 33.2085C27.5442 33.2374 27.2247 33.154 26.9192 32.9585L20.0025 28.7918Z" fill="#FFCC00"/>
</svg>
