<svg width="20" height="20" viewBox="0 0 20 20" fill="none" xmlns="http://www.w3.org/2000/svg">
<g clip-path="url(#clip0_556_3062)">
<path fill-rule="evenodd" clip-rule="evenodd" d="M19.5417 4.96188C19.68 4.50687 19.5417 4.17188 18.8792 4.17188H16.6917C16.135 4.17188 15.8783 4.46104 15.7392 4.78021C15.7392 4.78021 14.6267 7.44354 13.0508 9.17354C12.5408 9.67521 12.3092 9.83438 12.0308 9.83438C11.8917 9.83438 11.6825 9.67521 11.6825 9.21938V4.96188C11.6825 4.41521 11.5292 4.17188 11.0658 4.17188H7.62583C7.27833 4.17188 7.06917 4.42521 7.06917 4.66604C7.06917 5.18354 7.8575 5.30354 7.93833 6.76021V9.92521C7.93833 10.6194 7.81083 10.7452 7.5325 10.7452C6.79083 10.7452 4.98667 8.06938 3.91583 5.00771C3.70833 4.41187 3.49833 4.17188 2.93917 4.17188H0.75C0.125 4.17188 0 4.46104 0 4.78021C0 5.34854 0.741667 8.17188 3.45417 11.906C5.2625 14.456 7.80833 15.8385 10.1275 15.8385C11.5183 15.8385 11.69 15.5319 11.69 15.0027V13.0752C11.69 12.461 11.8217 12.3385 12.2625 12.3385C12.5875 12.3385 13.1433 12.4985 14.4417 13.7277C15.925 15.1852 16.1692 15.8385 17.0042 15.8385H19.1917C19.8167 15.8385 20.13 15.5319 19.95 14.9252C19.7517 14.3219 19.0433 13.446 18.1042 12.4069C17.5942 11.8152 16.8292 11.1777 16.5967 10.8585C16.2725 10.4494 16.365 10.2669 16.5967 9.90271C16.5967 9.90271 19.2633 6.21438 19.5408 4.96188H19.5417Z" fill="white"/>
</g>
<defs>
<clipPath id="clip0_556_3062">
<rect width="20" height="20" fill="white"/>
</clipPath>
</defs>
</svg>
