<svg width="14" height="26" viewBox="0 0 14 26" fill="none" xmlns="http://www.w3.org/2000/svg">
<mask id="path-1-inside-1_556_2901" fill="white">
<path d="M0 12.5276V12.0965H0.0129305L0.0620694 12.0957C0.106897 12.0945 0.173564 12.0917 0.26207 12.0871C0.437932 12.0784 0.696552 12.0586 1.02069 12.0198C1.6681 11.9422 2.57414 11.7871 3.59828 11.4759C5.65086 10.8534 8.16034 9.61465 10.0534 7.15086L10.7371 7.67672C8.7 10.3267 6.01207 11.6448 3.84914 12.3009C2.76638 12.6284 1.81034 12.7931 1.12241 12.8759C0.777665 12.9168 0.431407 12.9438 0.0844824 12.9569L0.0241378 12.9586H0.000861595L0 12.5276ZM10.0534 7.15086C11.1224 5.75948 11.7362 3.98103 12.0819 2.52586C12.2652 1.75492 12.3976 0.972779 12.4784 0.184482L12.4922 0.0103441L12.4931 0.00172319V0L12.9241 0.0275858L13.3534 0.0551717V0.059483L13.3526 0.0706886L13.3491 0.112068L13.3362 0.265516C13.3181 0.45325 13.2965 0.640638 13.2716 0.827585C13.1868 1.46531 13.0697 2.09831 12.9207 2.72414C12.5629 4.23103 11.9129 6.14655 10.7371 7.67672L10.0534 7.15086ZM0 12.5276V12.0965H0.0241378C0.0385056 12.0965 0.0586203 12.0971 0.0844824 12.0983C0.136781 12.0988 0.211494 12.1017 0.30862 12.1069C0.501724 12.1172 0.77931 12.1379 1.12241 12.1793C1.81034 12.2621 2.76638 12.4259 3.84914 12.7543C6.01207 13.4095 8.7 14.7284 10.7371 17.3784L10.0534 17.9043C8.16034 15.4405 5.65086 14.2017 3.59914 13.5793C2.57327 13.269 1.6681 13.1138 1.02069 13.0362C0.702307 12.9976 0.382514 12.9717 0.0620694 12.9586H0.0129305H0.00172483H0.000861595L0 12.5276ZM10.7371 17.3784C11.9129 18.9095 12.5629 20.8241 12.9207 22.3302C13.1 23.0888 13.2086 23.7526 13.2716 24.2276C13.3029 24.4655 13.3288 24.704 13.3491 24.9431L13.3526 24.9845L13.3534 24.9991L12.9233 25.0276L12.4931 25.0552V25.0448L12.4776 24.8707C12.3958 24.0825 12.2633 23.3005 12.081 22.5293C11.7362 21.0733 11.1224 19.2957 10.0534 17.9043L10.7371 17.3784Z"/>
</mask>
<path d="M0 12.5276V12.0965H0.0129305L0.0620694 12.0957C0.106897 12.0945 0.173564 12.0917 0.26207 12.0871C0.437932 12.0784 0.696552 12.0586 1.02069 12.0198C1.6681 11.9422 2.57414 11.7871 3.59828 11.4759C5.65086 10.8534 8.16034 9.61465 10.0534 7.15086L10.7371 7.67672C8.7 10.3267 6.01207 11.6448 3.84914 12.3009C2.76638 12.6284 1.81034 12.7931 1.12241 12.8759C0.777665 12.9168 0.431407 12.9438 0.0844824 12.9569L0.0241378 12.9586H0.000861595L0 12.5276ZM10.0534 7.15086C11.1224 5.75948 11.7362 3.98103 12.0819 2.52586C12.2652 1.75492 12.3976 0.972779 12.4784 0.184482L12.4922 0.0103441L12.4931 0.00172319V0L12.9241 0.0275858L13.3534 0.0551717V0.059483L13.3526 0.0706886L13.3491 0.112068L13.3362 0.265516C13.3181 0.45325 13.2965 0.640638 13.2716 0.827585C13.1868 1.46531 13.0697 2.09831 12.9207 2.72414C12.5629 4.23103 11.9129 6.14655 10.7371 7.67672L10.0534 7.15086ZM0 12.5276V12.0965H0.0241378C0.0385056 12.0965 0.0586203 12.0971 0.0844824 12.0983C0.136781 12.0988 0.211494 12.1017 0.30862 12.1069C0.501724 12.1172 0.77931 12.1379 1.12241 12.1793C1.81034 12.2621 2.76638 12.4259 3.84914 12.7543C6.01207 13.4095 8.7 14.7284 10.7371 17.3784L10.0534 17.9043C8.16034 15.4405 5.65086 14.2017 3.59914 13.5793C2.57327 13.269 1.6681 13.1138 1.02069 13.0362C0.702307 12.9976 0.382514 12.9717 0.0620694 12.9586H0.0129305H0.00172483H0.000861595L0 12.5276ZM10.7371 17.3784C11.9129 18.9095 12.5629 20.8241 12.9207 22.3302C13.1 23.0888 13.2086 23.7526 13.2716 24.2276C13.3029 24.4655 13.3288 24.704 13.3491 24.9431L13.3526 24.9845L13.3534 24.9991L12.9233 25.0276L12.4931 25.0552V25.0448L12.4776 24.8707C12.3958 24.0825 12.2633 23.3005 12.081 22.5293C11.7362 21.0733 11.1224 19.2957 10.0534 17.9043L10.7371 17.3784Z" fill="#1C1C1C"/>
<path d="M10.7371 7.67672L10.4325 8.07322L11.0419 7.28041L10.7371 7.67672ZM10.7371 17.3784L11.0419 17.7748L10.4325 16.9819L10.7371 17.3784ZM0 12.5276H-0.500001L-0.499999 12.5286L0 12.5276ZM10.3948 7.41379L10.0902 7.81029L10.4325 8.07322L10.7371 7.67672L11.0417 7.28023L10.6994 7.01729L10.3948 7.41379ZM10.3948 17.6414L10.6994 18.0379L11.0417 17.7749L10.7371 17.3784L10.4325 16.9819L10.0902 17.2449L10.3948 17.6414ZM0 12.5276H0.5V12.0965H0H-0.5V12.5276H0ZM10.0534 7.15086L9.74859 7.54717L10.4322 8.07304L10.7371 7.67672L11.0419 7.28041L10.3583 6.75455L10.0534 7.15086ZM0.000861595 12.9586L0.500861 12.9576L0.499999 12.5266L0 12.5276L-0.499999 12.5286L-0.499137 12.9596L0.000861595 12.9586ZM10.7371 17.3784L10.4322 16.9821L9.74859 17.508L10.0534 17.9043L10.3583 18.3006L11.0419 17.7748L10.7371 17.3784ZM10.7371 7.67672L11.5299 8.28617L11.53 8.28605L10.7371 7.67672ZM10.7371 17.3784L11.5302 16.7693L11.5299 16.769L10.7371 17.3784ZM0.0129305 12.0965V13.0965H0.0216968L0.0304617 13.0964L0.0129305 12.0965ZM0.0620694 12.0957L0.0796012 13.0956L0.087702 13.0954L0.0620694 12.0957ZM0.26207 12.0871L0.213109 11.0883L0.210192 11.0884L0.26207 12.0871ZM1.02069 12.0198L1.13952 13.0127L1.13968 13.0127L1.02069 12.0198ZM3.59828 11.4759L3.30809 10.5189L3.30753 10.5191L3.59828 11.4759ZM10.0534 7.15086L10.8464 7.76014L10.8464 7.7601L10.0534 7.15086ZM3.84914 12.3009L4.13872 13.258L4.13939 13.2578L3.84914 12.3009ZM1.12241 12.8759L1.24032 13.8689L1.24185 13.8687L1.12241 12.8759ZM0.0844824 12.9569L0.113028 13.9565L0.122122 13.9562L0.0844824 12.9569ZM0.0241378 12.9586V13.9586H0.0384128L0.052682 13.9582L0.0241378 12.9586ZM12.0819 2.52586L11.109 2.29457L11.109 2.29474L12.0819 2.52586ZM12.4784 0.184482L13.4732 0.286444L13.4744 0.274962L13.4753 0.263455L12.4784 0.184482ZM12.4922 0.0103441L11.4972 -0.0891033L11.4962 -0.0788759L11.4954 -0.0686297L12.4922 0.0103441ZM12.4931 0.00172319L13.4881 0.101171L13.4931 0.0515704V0.00172319H12.4931ZM12.4931 0L12.557 -0.997958L11.4931 -1.06605V0H12.4931ZM12.9241 0.0275858L12.9883 -0.970356L12.988 -0.970372L12.9241 0.0275858ZM13.3534 0.0551717H14.3534V-0.882635L13.4176 -0.94277L13.3534 0.0551717ZM13.3534 0.059483L14.3505 0.136437L14.3534 0.098017V0.059483H13.3534ZM13.3526 0.0706886L14.3492 0.15369L14.3496 0.147642L13.3526 0.0706886ZM13.3491 0.112068L14.3456 0.196037L14.3457 0.195068L13.3491 0.112068ZM13.3362 0.265516L14.3316 0.36167L14.3327 0.349485L13.3362 0.265516ZM13.2716 0.827585L12.2804 0.695216L12.2803 0.695907L13.2716 0.827585ZM12.9207 2.72414L11.9479 2.49246L11.9477 2.49314L12.9207 2.72414ZM0.0844824 12.0983L0.0400818 13.0973L0.0567802 13.098L0.073494 13.0982L0.0844824 12.0983ZM0.30862 12.1069L0.362115 11.1083L0.3618 11.1083L0.30862 12.1069ZM1.12241 12.1793L1.00268 13.1721L1.00297 13.1722L1.12241 12.1793ZM3.84914 12.7543L3.55886 13.7113L3.55924 13.7114L3.84914 12.7543ZM10.0534 17.9043L10.8464 17.2951L10.8464 17.295L10.0534 17.9043ZM3.59914 13.5793L3.88943 12.6224L3.8887 12.6222L3.59914 13.5793ZM1.02069 13.0362L0.900368 14.0289L0.901701 14.0291L1.02069 13.0362ZM0.0620694 12.9586L0.102963 11.9595L0.0825245 11.9586H0.0620694V12.9586ZM12.9207 22.3302L13.8939 22.1001L13.8936 22.0991L12.9207 22.3302ZM13.2716 24.2276L14.263 24.0968L14.2629 24.0962L13.2716 24.2276ZM13.3491 24.9431L14.3457 24.8601L14.3455 24.8584L13.3491 24.9431ZM13.3526 24.9845L14.3508 24.9256L14.3501 24.9135L14.3491 24.9015L13.3526 24.9845ZM13.3534 24.9991L13.4194 25.997L14.4102 25.9314L14.3517 24.9402L13.3534 24.9991ZM12.9233 25.0276L12.9873 26.0255L12.9893 26.0254L12.9233 25.0276ZM12.4931 25.0552H11.4931V26.1214L12.5571 26.0531L12.4931 25.0552ZM12.4931 25.0448H13.4931V25.0004L13.4892 24.9561L12.4931 25.0448ZM12.4776 24.8707L13.4736 24.7819L13.473 24.7747L13.4722 24.7674L12.4776 24.8707ZM12.081 22.5293L13.0542 22.2993L13.0541 22.2989L12.081 22.5293ZM0 12.0965V13.0965H0.0129305V12.0965V11.0965H0V12.0965ZM0.0129305 12.0965L0.0304617 13.0964L0.0796006 13.0955L0.0620694 12.0957L0.0445382 11.0958L-0.00460068 11.0967L0.0129305 12.0965ZM0.0620694 12.0957L0.087702 13.0954C0.146096 13.0939 0.223401 13.0904 0.313948 13.0857L0.26207 12.0871L0.210192 11.0884C0.123727 11.0929 0.0676984 11.0952 0.0364368 11.096L0.0620694 12.0957ZM0.26207 12.0871L0.311031 13.0859C0.511992 13.076 0.793974 13.0541 1.13952 13.0127L1.02069 12.0198L0.901857 11.0269C0.599129 11.0631 0.363872 11.0809 0.213109 11.0883L0.26207 12.0871ZM1.02069 12.0198L1.13968 13.0127C1.83261 12.9297 2.79777 12.7643 3.88902 12.4327L3.59828 11.4759L3.30753 10.5191C2.3505 10.8099 1.5036 10.9548 0.901701 11.0269L1.02069 12.0198ZM3.59828 11.4759L3.88846 12.4328C6.06928 11.7715 8.78709 10.4402 10.8464 7.76014L10.0534 7.15086L9.26049 6.54158C7.5336 8.78906 5.23244 9.93536 3.30809 10.5189L3.59828 11.4759ZM10.7371 7.67672L9.94424 7.06728C8.07336 9.50108 5.59367 10.7267 3.55889 11.3439L3.84914 12.3009L4.13939 13.2578C6.43047 12.5629 9.32664 11.1524 11.5299 8.28617L10.7371 7.67672ZM3.84914 12.3009L3.55955 11.3437C2.54279 11.6513 1.64518 11.8058 1.00297 11.883L1.12241 12.8759L1.24185 13.8687C1.9755 13.7804 2.98997 13.6056 4.13872 13.258L3.84914 12.3009ZM1.12241 12.8759L1.00451 11.8828C0.686416 11.9206 0.366935 11.9455 0.0468426 11.9576L0.0844824 12.9569L0.122122 13.9562C0.495878 13.9421 0.868914 13.913 1.24032 13.8689L1.12241 12.8759ZM0.0844824 12.9569L0.0559382 11.9573L-0.0044064 11.959L0.0241378 12.9586L0.052682 13.9582L0.113027 13.9565L0.0844824 12.9569ZM0.0241378 12.9586V11.9586H0.000861595V12.9586V13.9586H0.0241378V12.9586ZM10.0534 7.15086L10.8464 7.7601C12.0398 6.20675 12.6952 4.2708 13.0548 2.75699L12.0819 2.52586L11.109 2.29474C10.7772 3.69127 10.205 5.31222 9.26046 6.54163L10.0534 7.15086ZM12.0819 2.52586L13.0548 2.75716C13.2482 1.94363 13.388 1.11828 13.4732 0.286444L12.4784 0.184482L11.4837 0.0825193C11.4073 0.827274 11.2822 1.56621 11.109 2.29457L12.0819 2.52586ZM12.4784 0.184482L13.4753 0.263455L13.4891 0.0893178L12.4922 0.0103441L11.4954 -0.0686297L11.4816 0.105508L12.4784 0.184482ZM12.4922 0.0103441L13.4873 0.109791L13.4881 0.101171L12.4931 0.00172319L11.4981 -0.0977242L11.4972 -0.0891033L12.4922 0.0103441ZM12.4931 0.00172319H13.4931V0H12.4931H11.4931V0.00172319H12.4931ZM12.4931 0L12.4292 0.997958L12.8603 1.02554L12.9241 0.0275858L12.988 -0.970372L12.557 -0.997958L12.4931 0ZM12.9241 0.0275858L12.86 1.02553L13.2893 1.05311L13.3534 0.0551717L13.4176 -0.94277L12.9883 -0.970356L12.9241 0.0275858ZM13.3534 0.0551717H12.3534V0.059483H13.3534H14.3534V0.0551717H13.3534ZM13.3534 0.059483L12.3564 -0.0174708L12.3555 -0.00626518L13.3526 0.0706886L14.3496 0.147642L14.3505 0.136437L13.3534 0.059483ZM13.3526 0.0706886L12.356 -0.012311L12.3526 0.0290686L13.3491 0.112068L14.3457 0.195068L14.3491 0.153688L13.3526 0.0706886ZM13.3491 0.112068L12.3527 0.0280994L12.3397 0.181547L13.3362 0.265516L14.3327 0.349485L14.3456 0.196037L13.3491 0.112068ZM13.3362 0.265516L12.3408 0.169369C12.3239 0.345002 12.3037 0.520314 12.2804 0.695216L13.2716 0.827585L14.2628 0.959955C14.2893 0.760961 14.3123 0.561497 14.3316 0.361663L13.3362 0.265516ZM13.2716 0.827585L12.2803 0.695907C12.2 1.30001 12.0891 1.89963 11.9479 2.49246L12.9207 2.72414L13.8935 2.95582C14.0504 2.29699 14.1737 1.63062 14.2628 0.959263L13.2716 0.827585ZM12.9207 2.72414L11.9477 2.49314C11.6039 3.94137 10.9955 5.69928 9.94415 7.0674L10.7371 7.67672L11.53 8.28605C12.8304 6.59382 13.522 4.5207 13.8936 2.95513L12.9207 2.72414ZM0 12.0965V13.0965H0.0241378V12.0965V11.0965H0V12.0965ZM0.0241378 12.0965V13.0965C0.0212202 13.0965 0.0195319 13.0965 0.0193474 13.0965C0.0191075 13.0965 0.0197661 13.0965 0.0214633 13.0966C0.0249947 13.0967 0.0310371 13.0969 0.0400818 13.0973L0.0844824 12.0983L0.128883 11.0993C0.09787 11.0979 0.060553 11.0965 0.0241378 11.0965V12.0965ZM0.0844824 12.0983L0.073494 13.0982C0.104519 13.0986 0.162624 13.1005 0.255441 13.1055L0.30862 12.1069L0.3618 11.1083C0.260364 11.1029 0.169043 11.0991 0.0954707 11.0983L0.0844824 12.0983ZM0.30862 12.1069L0.255126 13.1055C0.428372 13.1147 0.683742 13.1337 1.00268 13.1721L1.12241 12.1793L1.24215 11.1865C0.874879 11.1422 0.575076 11.1197 0.362115 11.1083L0.30862 12.1069ZM1.12241 12.1793L1.00297 13.1722C1.6458 13.2495 2.54299 13.4031 3.55886 13.7113L3.84914 12.7543L4.13942 11.7974C2.98977 11.4486 1.97489 11.2747 1.24185 11.1865L1.12241 12.1793ZM3.84914 12.7543L3.55924 13.7114C5.5935 14.3276 8.07327 15.554 9.94424 17.9879L10.7371 17.3784L11.5299 16.769C9.32674 13.9029 6.43063 12.4914 4.13904 11.7973L3.84914 12.7543ZM10.0534 17.9043L10.8464 17.295C8.78711 14.6149 6.06933 13.2837 3.88943 12.6224L3.59914 13.5793L3.30884 14.5362C5.2324 15.1198 7.53358 16.2661 9.26049 18.5136L10.0534 17.9043ZM3.59914 13.5793L3.8887 12.6222C2.79654 12.2917 1.83275 12.1264 1.13968 12.0433L1.02069 13.0362L0.901701 14.0291C1.50346 14.1012 2.35001 14.2462 3.30958 14.5365L3.59914 13.5793ZM1.02069 13.0362L1.14101 12.0435C0.796249 12.0017 0.449958 11.9737 0.102963 11.9595L0.0620694 12.9586L0.0211763 13.9578C0.315069 13.9698 0.608365 13.9935 0.900368 14.0289L1.02069 13.0362ZM0.0620694 12.9586V11.9586H0.0129305V12.9586V13.9586H0.0620694V12.9586ZM0.0129305 12.9586V11.9586H0.00172483V12.9586V13.9586H0.0129305V12.9586ZM0.00172483 12.9586V11.9586H0.000861595V12.9586V13.9586H0.00172483V12.9586ZM10.7371 17.3784L9.94398 17.9876C10.9955 19.3567 11.604 21.1141 11.9478 22.5613L12.9207 22.3302L13.8936 22.0991C13.5219 20.5342 12.8303 18.4622 11.5302 16.7693L10.7371 17.3784ZM12.9207 22.3302L11.9475 22.5602C12.1178 23.2808 12.2209 23.911 12.2802 24.3589L13.2716 24.2276L14.2629 24.0962C14.1964 23.5941 14.0822 22.8968 13.8939 22.1001L12.9207 22.3302ZM13.2716 24.2276L12.2801 24.3584C12.3095 24.581 12.3337 24.8042 12.3527 25.0278L13.3491 24.9431L14.3455 24.8584C14.3239 24.6039 14.2964 24.35 14.263 24.0968L13.2716 24.2276ZM13.3491 24.9431L12.3526 25.0261L12.356 25.0675L13.3526 24.9845L14.3491 24.9015L14.3457 24.8601L13.3491 24.9431ZM13.3526 24.9845L12.3543 25.0434L12.3552 25.0581L13.3534 24.9991L14.3517 24.9402L14.3508 24.9256L13.3526 24.9845ZM13.3534 24.9991L13.2875 24.0013L12.8573 24.0298L12.9233 25.0276L12.9893 26.0254L13.4194 25.997L13.3534 24.9991ZM12.9233 25.0276L12.8593 24.0296L12.4291 24.0572L12.4931 25.0552L12.5571 26.0531L12.9873 26.0255L12.9233 25.0276ZM12.4931 25.0552H13.4931V25.0448H12.4931H11.4931V25.0552H12.4931ZM12.4931 25.0448L13.4892 24.9561L13.4736 24.7819L12.4776 24.8707L11.4815 24.9595L11.4971 25.1336L12.4931 25.0448ZM12.4776 24.8707L13.4722 24.7674C13.386 23.9366 13.2463 23.1122 13.0542 22.2993L12.081 22.5293L11.1078 22.7593C11.2802 23.4887 11.4055 24.2285 11.4829 24.974L12.4776 24.8707ZM12.081 22.5293L13.0541 22.2989C12.6952 20.7835 12.0398 18.8484 10.8464 17.2951L10.0534 17.9043L9.26046 18.5135C10.205 19.743 10.7772 21.3631 11.1079 22.7598L12.081 22.5293Z" fill="#1C1C1C" mask="url(#path-1-inside-1_556_2901)"/>
</svg>
