<svg width="36" height="34" viewBox="0 0 36 34" fill="none" xmlns="http://www.w3.org/2000/svg">
<path d="M8.061 11.6278L14.4896 1.3421M28.6324 11.6278L22.2039 1.3421M4.63585 26.5498C3.63814 22.2504 3.17528 17.3441 3.003 14.1992C2.98642 13.8644 3.03874 13.5296 3.15673 13.2158C3.27471 12.9019 3.45585 12.6156 3.68893 12.3746C3.92202 12.1335 4.20208 11.9429 4.5118 11.8144C4.82153 11.686 5.15431 11.6225 5.48957 11.6278H31.2039C32.6233 11.6278 33.7676 12.7798 33.6904 14.1992C33.5156 17.3415 33.0553 22.2478 32.0576 26.5498C31.5947 28.5427 30.129 30.0598 28.1027 30.3555C26.0199 30.6564 22.8493 30.9135 18.3467 30.9135C13.8441 30.9135 10.6761 30.6564 8.59071 30.3555C6.56443 30.0598 5.09871 28.5427 4.63585 26.5498Z" stroke="white" stroke-width="2.5" stroke-linecap="round" stroke-linejoin="round"/>
</svg>
