<svg width="252" height="40" viewBox="0 0 252 40" fill="none" xmlns="http://www.w3.org/2000/svg">
<g clip-path="url(#clip0_556_2814)">
<path d="M54.7643 33.193H59.3557V6.80713H52.6762C45.9492 6.80713 42.4255 10.2596 42.4255 15.3493C42.4255 19.4069 44.3594 21.8034 47.8119 24.2712L41.8086 33.193H46.7915L53.4711 23.2034L51.1575 21.6492C48.3457 19.7509 46.9814 18.2679 46.9814 15.0764C46.9814 12.2646 48.9508 10.3664 52.7118 10.3664H54.7643V33.193ZM143.33 33.5727C145.418 33.5727 146.901 33.193 148.005 32.3862V28.7084C146.866 29.5033 145.501 30.0016 143.603 30.0016C140.376 30.0016 139.047 27.4982 139.047 23.5475C139.047 19.4069 140.673 17.2832 143.639 17.2832C145.383 17.2832 147.091 17.8882 148.005 18.4577V14.6256C147.056 14.0917 145.383 13.7121 143.14 13.7121C137.374 13.7121 134.373 17.8527 134.373 23.6542C134.373 30.0371 137.291 33.5727 143.33 33.5727ZM115.082 31.8998V28.2101C113.682 29.1592 111.333 30.0016 109.126 30.0016C105.828 30.0016 104.57 28.4473 104.38 25.2559H115.271V22.8593C115.271 16.2154 112.353 13.7121 107.833 13.7121C102.328 13.7121 99.7057 17.9238 99.7057 23.7017C99.7057 30.3456 102.98 33.5727 108.746 33.5727C111.629 33.5727 113.753 32.8134 115.082 31.8998ZM129.508 33.193H134.634L127.385 23.0492L133.768 14.0917H129.212L122.829 23.0492V14.0917H118.309V33.193H122.829V23.9627L129.508 33.193ZM98.6142 29.6219H96.5973V14.0917H83.4281V15.729C83.4281 20.3916 83.1196 26.4304 81.5298 29.6219H80.118V37.559H84.2941V33.193H94.438V37.559H98.6142V29.6219ZM73.6994 14.0917V21.6492H67.6725V14.0917H63.1522V33.193H67.6725V25.2203H73.6994V33.193H78.2197V14.0917H73.6994ZM107.761 17.2832C110.004 17.2832 110.68 19.1459 110.68 21.5305V21.9102H104.38C104.499 18.873 105.59 17.2832 107.761 17.2832ZM92.077 29.6219H85.706C86.9517 26.7389 87.2958 21.5305 87.2958 18.2323V17.6628H92.077V29.6219ZM171.579 33.193H176.929L167.557 19.3357L176.063 6.80713H171.389L163.226 18.956V6.80713H158.635V33.193H163.226V20.8068L171.579 33.193ZM192.341 20.1662C192.341 15.5391 189.992 13.7833 185.211 13.7833C182.209 13.7833 179.86 14.7324 178.484 15.5391V19.2882C179.706 18.3865 182.363 17.39 184.677 17.39C186.836 17.39 187.833 18.1493 187.833 20.2018V21.2695H187.109C180.192 21.2695 177.119 23.5475 177.119 27.4152C177.119 31.2947 179.48 33.454 182.968 33.454C185.626 33.454 186.765 32.5761 187.643 31.6744H187.833C187.868 32.1608 188.022 32.8134 188.165 33.193H192.578C192.424 31.6269 192.341 30.0727 192.341 28.5185V20.1662ZM187.833 28.6372C187.263 29.4677 186.195 30.1558 184.606 30.1558C182.707 30.1558 181.758 29.088 181.758 27.4508C181.758 25.2915 183.312 24.4966 187.18 24.4966H187.833V28.6372ZM200.171 14.0917H195.995V38.698H200.504V30.9507C201.643 32.6591 203.315 33.5727 205.249 33.5727C209.663 33.5727 212.7 30.0371 212.7 23.6186C212.7 17.2476 209.734 13.7121 205.486 13.7121C203.351 13.7121 201.607 14.6968 200.397 16.5595L200.171 14.0917ZM204.11 30.0016C201.726 30.0016 200.504 28.0677 200.504 23.6542C200.504 19.217 201.797 17.2832 204.348 17.2832C206.815 17.2832 208.025 19.217 208.025 23.6186C208.025 28.0677 206.732 30.0016 204.11 30.0016ZM228.598 17.6628V14.0917H213.459V17.6628H218.774V33.193H223.283V17.6628H228.598ZM231.255 14.0917V33.193H238.137C242.574 33.193 245.73 30.9151 245.73 26.4304C245.73 22.1831 242.918 19.9407 238.208 19.9407H235.776V14.0917H231.255ZM247.391 14.0917V33.193H251.911V14.0917H247.391ZM237.864 29.6219H235.776V23.5119H237.982C239.916 23.5119 241.055 24.3779 241.055 26.5847C241.055 28.7795 239.798 29.6219 237.864 29.6219Z" fill="black"/>
<path fill-rule="evenodd" clip-rule="evenodd" d="M1.45248e-05 15.9993C1.45248e-05 7.16349 7.1635 0 16.0005 0C24.8363 0 31.9998 7.16349 31.9998 15.9993C31.9998 20.4172 30.2098 24.4155 27.3168 27.3109C26.5609 28.0668 25.5375 28.9107 24.431 29.8247C21.2979 32.4098 17.4957 35.5476 17.1998 38.7996C17.1403 39.4592 16.6625 40 15.9993 40C15.3373 40 14.8595 39.4592 14.8 38.7996C14.5041 35.5476 10.7019 32.4098 7.5688 29.8247C6.46343 28.9107 5.44008 28.0668 4.68415 27.3109C1.68004 24.3137 -0.00570854 20.2428 1.45248e-05 15.9993ZM21.601 16.0005C21.6461 19.0932 19.1754 21.6369 16.0827 21.682C12.9899 21.727 10.4462 19.2564 10.4012 16.1636C10.4004 16.1092 10.4004 16.0549 10.4012 16.0005C10.4462 12.9077 12.9899 10.4371 16.0827 10.4821C19.1119 10.5262 21.5569 12.9712 21.601 16.0005Z" fill="url(#paint0_linear_556_2814)"/>
<path fill-rule="evenodd" clip-rule="evenodd" d="M1.45248e-05 15.9993C1.45248e-05 7.16349 7.1635 0 16.0005 0C24.8363 0 31.9998 7.16349 31.9998 15.9993C31.9998 20.4172 30.2098 24.4155 27.3168 27.3109C26.5609 28.0668 25.5375 28.9107 24.431 29.8247C21.2979 32.4098 17.4957 35.5476 17.1998 38.7996C17.1403 39.4592 16.6625 40 15.9993 40C15.3373 40 14.8595 39.4592 14.8 38.7996C14.5041 35.5476 10.7019 32.4098 7.5688 29.8247C6.46343 28.9107 5.44008 28.0668 4.68415 27.3109C1.68004 24.3137 -0.00570854 20.2428 1.45248e-05 15.9993ZM21.601 16.0005C21.6461 19.0932 19.1754 21.6369 16.0827 21.682C12.9899 21.727 10.4462 19.2564 10.4012 16.1636C10.4004 16.1092 10.4004 16.0549 10.4012 16.0005C10.4462 12.9077 12.9899 10.4371 16.0827 10.4821C19.1119 10.5262 21.5569 12.9712 21.601 16.0005Z" fill="#FF4433"/>
</g>
<defs>
<linearGradient id="paint0_linear_556_2814" x1="15.9999" y1="0" x2="15.9999" y2="40" gradientUnits="userSpaceOnUse">
<stop stop-color="#FF6122"/>
<stop offset="1" stop-color="#F22411"/>
</linearGradient>
<clipPath id="clip0_556_2814">
<rect width="251.912" height="40" fill="white"/>
</clipPath>
</defs>
</svg>
